<?xml version="1.0" encoding="iso-8859-1"?>
<!-- Generator: Adobe Illustrator 19.0.0, SVG Export Plug-In . SVG Version: 6.00 Build 0)  -->
<svg version="1.1" id="Capa_1" xmlns="http://www.w3.org/2000/svg" xmlns:xlink="http://www.w3.org/1999/xlink" x="0px" y="0px"
	 viewBox="0 0 512 512" style="enable-background:new 0 0 512 512;" xml:space="preserve">
<linearGradient id="SVGID_1_" gradientUnits="userSpaceOnUse" x1="0.0126" y1="257.9999" x2="511.9873" y2="257.9999" gradientTransform="matrix(1 0 0 -1 0 513.9999)">
	<stop  offset="0" style="stop-color:#f60400"/>
	<stop  offset="0.021" style="stop-color:#ff2300"/>
	<stop  offset="0.293" style="stop-color:#ff4100"/>
	<stop  offset="0.554" style="stop-color:#ff732a"/>
	<stop  offset="0.796" style="stop-color:#ff953e"/>
	<stop  offset="1" style="stop-color:#ff9f42"/>
</linearGradient>
<path style="fill:url(#SVGID_1_);" d="M156.987,347c-5.13,0-10.259-1.961-14.166-5.882L17.537,215.402
	c-23.37-23.37-23.37-61.434,0.023-84.828L142.877,5.826c7.829-7.792,20.492-7.765,28.284,0.064
	c7.793,7.828,7.765,20.491-0.063,28.284L45.814,158.89c-7.767,7.766-7.767,20.454,0.032,28.252l125.308,125.74
	c7.798,7.824,7.775,20.487-0.048,28.284C167.202,345.056,162.094,347,156.987,347z M511.987,332.5
	c0-98.977-80.523-179.5-179.5-179.5h-213.5c-11.046,0-20,8.954-20,20s8.954,20,20,20h213.5c76.921,0,139.5,62.58,139.5,139.5
	S409.408,472,332.487,472c-11.046,0-20,8.954-20,20s8.954,20,20,20C431.464,512,511.987,431.476,511.987,332.5z"/>
<g>
</g>
<g>
</g>
<g>
</g>
<g>
</g>
<g>
</g>
<g>
</g>
<g>
</g>
<g>
</g>
<g>
</g>
<g>
</g>
<g>
</g>
<g>
</g>
<g>
</g>
<g>
</g>
<g>
</g>
</svg>
