<?xml version="1.0" encoding="iso-8859-1"?>
<!-- Generator: Adobe Illustrator 19.0.0, SVG Export Plug-In . SVG Version: 6.00 Build 0)  -->
<svg version="1.1" id="Capa_1" xmlns="http://www.w3.org/2000/svg" xmlns:xlink="http://www.w3.org/1999/xlink" x="0px" y="0px"
	 viewBox="0 0 512 512" style="enable-background:new 0 0 512 512;" xml:space="preserve">
<linearGradient id="SVGID_1_" gradientUnits="userSpaceOnUse" x1="43.9554" y1="258.0571" x2="467.9564" y2="258.0571" gradientTransform="matrix(1.0001 0 0 -1.0001 0.0071 514.0944)">
	<stop  offset="0" style="stop-color:#21212a"/>
	<stop  offset="0.021" style="stop-color:#21212a"/>
	<stop  offset="0.293" style="stop-color:#21212a"/>
	<stop  offset="0.554" style="stop-color:#21212a"/>
	<stop  offset="0.796" style="stop-color:#21212a"/>
	<stop  offset="1" style="stop-color:#21212a"/>
</linearGradient>
<path style="fill:url(#SVGID_1_);" d="M386.908,128.019c0,11.048-8.955,20.003-20.003,20.003h-141.91
	c-11.048,0-20.003-8.955-20.003-20.003s8.955-20.003,20.003-20.003h141.91C377.952,108.016,386.908,116.971,386.908,128.019z
	 M386.908,208.03c0-11.048-8.955-20.003-20.003-20.003h-141.91c-11.048,0-20.003,8.955-20.003,20.003s8.955,20.003,20.003,20.003
	h141.91C377.952,228.033,386.908,219.078,386.908,208.03z M224.996,268.039c-11.048,0-20.003,8.955-20.003,20.003
	c0,11.048,8.955,20.003,20.003,20.003h61.009c11.048,0,20.003-8.955,20.003-20.003c0-11.048-8.955-20.003-20.003-20.003H224.996z
	 M428.025,252.036V80.012c0-22.059-17.947-40.006-40.006-40.006H203.993c-22.059,0-40.006,17.947-40.006,40.006v272.024
	c0,10.689,4.163,20.735,11.721,28.291c7.556,7.555,17.601,11.715,28.285,11.715h0.009l184.027-0.045
	c22.054-0.005,39.996-17.952,39.996-40.006c0-11.048,8.955-20.003,20.003-20.003s20.003,8.955,20.003,20.003
	c0,40.728-30.596,74.452-70.01,79.389v0.608c0,44.118-35.893,80.012-80.012,80.012H123.98c-44.118,0-80.012-35.893-80.012-80.012
	V159.949c0-44.118,35.893-80.012,80.012-80.012l0,0C124.021,35.853,159.899,0,203.993,0H388.02
	c44.118,0,80.012,35.893,80.012,80.012v172.025c0,11.048-8.955,20.003-20.003,20.003S428.025,263.084,428.025,252.036z
	 M147.423,408.62c-15.116-15.112-23.441-35.208-23.441-56.583V119.943c-22.059,0-40.006,17.947-40.006,40.006v272.039
	c0,22.059,17.947,40.006,40.006,40.006h194.028c22.052,0,39.994-17.935,40.006-39.984l-154.002,0.038h-0.02
	C182.623,432.047,162.536,423.729,147.423,408.62z"/>
<g>
</g>
<g>
</g>
<g>
</g>
<g>
</g>
<g>
</g>
<g>
</g>
<g>
</g>
<g>
</g>
<g>
</g>
<g>
</g>
<g>
</g>
<g>
</g>
<g>
</g>
<g>
</g>
<g>
</g>
</svg>
