<?xml version="1.0" encoding="iso-8859-1"?>
<!-- Generator: Adobe Illustrator 19.0.0, SVG Export Plug-In . SVG Version: 6.00 Build 0)  -->
<svg version="1.1" id="Capa_1" xmlns="http://www.w3.org/2000/svg" xmlns:xlink="http://www.w3.org/1999/xlink" x="0px" y="0px"
	 viewBox="0 0 512 512" style="enable-background:new 0 0 512 512;" xml:space="preserve">
<linearGradient id="SVGID_1_" gradientUnits="userSpaceOnUse" x1="0.4613" y1="257.4031" x2="512.4604" y2="257.4031" gradientTransform="matrix(0.9985 0 0 -0.9985 -0.074 513.0143)">
	<stop  offset="0" style="stop-color:#f60400"/>
	<stop  offset="0.021" style="stop-color:#ff2300"/>
	<stop  offset="0.293" style="stop-color:#ff4100"/>
	<stop  offset="0.554" style="stop-color:#ff732a"/>
	<stop  offset="0.796" style="stop-color:#ff953e"/>
	<stop  offset="1" style="stop-color:#ff9f42"/>
</linearGradient>
<path style="fill:url(#SVGID_1_);" d="M497.277,186.256c-7.424-8.156-20.053-8.751-28.21-1.327
	c-8.157,7.424-8.751,20.054-1.328,28.21c2.648,2.909,3.935,7.221,3.935,13.185c0,10.379-3.976,13.972-7.865,16.119
	c-4.443,2.451-9.818,3.126-11.612,3.185h-13.534c-8.045-37.764-27.95-69.206-58.728-92.247
	c-13.995-10.476-30.005-19.049-47.719-25.629c7.543-12.898,11.651-27.705,11.651-42.881C343.867,38.073,305.794,0,258.996,0
	s-84.872,38.073-84.872,84.872c0,4.99,0.441,9.943,1.303,14.805c-22.649-19.203-50.673-29.731-82.529-30.769
	c-7.2-0.226-13.959,3.421-17.704,9.569s-3.892,13.835-0.384,20.122c0.157,0.28,14.144,25.61,19.443,55.791
	c-20.16,18.697-29.679,39.774-36.868,55.69c-2.687,5.951-6.288,13.925-8.606,16.579H20.356c-11.029,0-19.97,8.94-19.97,19.97v79.879
	c0,11.029,8.94,19.97,19.97,19.97h20.856c11.082,25.85,28.568,48.533,51.422,66.718l-6.622,16.061
	c-6.099,14.795-6.073,31.079,0.076,45.853c6.149,14.775,17.682,26.27,32.476,32.369c7.447,3.07,15.161,4.523,22.757,4.523
	c23.555-0.002,45.944-13.982,55.464-37.075l7.161-17.37c9.994,1.163,20.167,1.75,30.402,1.75h1.365
	c16.12,0,31.765-1.131,46.707-3.372l7.829,18.991c12.591,30.539,47.679,45.144,78.221,32.553
	c14.794-6.099,26.328-17.594,32.476-32.369c6.149-14.774,6.176-31.057,0.076-45.853l-14.501-35.172
	c-4.204-10.198-15.875-15.055-26.075-10.851c-10.196,4.204-15.054,15.877-10.851,26.074l14.501,35.172
	c2.033,4.931,2.024,10.359-0.025,15.285c-2.05,4.925-5.894,8.757-10.826,10.79c-10.181,4.195-21.876-0.671-26.074-10.851
	l-13.973-33.892c-3.675-8.916-13.197-13.93-22.627-11.92c-17.039,3.635-35.498,5.476-54.862,5.476h-1.365
	c-13.39,0-26.618-1.178-39.32-3.502c-9.269-1.692-18.464,3.32-22.056,12.033l-13.112,31.806
	c-4.198,10.178-15.894,15.046-26.074,10.85c-4.932-2.033-8.776-5.865-10.826-10.79c-2.05-4.926-2.059-10.353-0.025-15.285
	l12.605-30.573c3.637-8.824,0.523-18.988-7.433-24.259c-26.23-17.378-44.95-41.364-54.136-69.365
	c-2.687-8.2-10.341-13.744-18.971-13.744H40.326v-39.94h9.309c26.047,0,36.083-22.223,44.148-40.079
	c7.168-15.871,15.292-33.859,33.902-48.139c5.485-4.21,8.403-10.955,7.713-17.834c-1.641-16.362-5.687-31.94-10.1-45.009
	c15.931,6.324,29.457,17.055,40.42,32.11c4.477,6.15,12.058,9.223,19.553,7.922c14.538-2.519,31.05-3.797,49.076-3.797h1.365
	c39.191,0,167.063,9.648,167.063,133.798c0,11.168-1.074,21.857-3.194,31.771c-2.306,10.786,4.569,21.398,15.354,23.703
	c10.778,2.298,21.397-4.569,23.703-15.355c2.705-12.653,4.077-26.151,4.077-40.12h9.652c2.427,0,15.209-0.339,28.568-7.017
	c19.782-9.89,30.677-28.438,30.677-52.226C511.614,210.417,506.656,196.562,497.277,186.256z M234.35,111.831
	c-3.782,0-7.512,0.052-11.187,0.154c-5.884-7.771-9.099-17.307-9.099-27.113c0-24.776,20.157-44.932,44.932-44.932
	s44.932,20.157,44.932,44.932c0,12.047-4.631,23.225-13.082,31.694c-17.336-3.137-35.779-4.735-55.131-4.735
	C235.715,111.831,234.35,111.831,234.35,111.831z M133.186,236.642c11.029,0,19.97,8.94,19.97,19.97
	c0,11.029-8.94,19.97-19.97,19.97s-19.97-8.94-19.97-19.97C113.216,245.583,122.158,236.642,133.186,236.642z"/>
<g>
</g>
<g>
</g>
<g>
</g>
<g>
</g>
<g>
</g>
<g>
</g>
<g>
</g>
<g>
</g>
<g>
</g>
<g>
</g>
<g>
</g>
<g>
</g>
<g>
</g>
<g>
</g>
<g>
</g>
</svg>
