<svg viewBox="-36 0 512 512.00037" xmlns="http://www.w3.org/2000/svg" xmlns:xlink="http://www.w3.org/1999/xlink"><linearGradient id="a" gradientUnits="userSpaceOnUse" x1="0" x2="440" y1="256" y2="256">
	<stop  offset="0" style="stop-color:#f60400"/>
	<stop  offset="0.021" style="stop-color:#ff2300"/>
	<stop  offset="0.293" style="stop-color:#ff4100"/>
	<stop  offset="0.554" style="stop-color:#ff732a"/>
	<stop  offset="0.796" style="stop-color:#ff953e"/>
	<stop  offset="1" style="stop-color:#ff9f42"/>
</linearGradient><path d="m420 334c11.046875 0 20-8.953125 20-20v-94c0-58.695312-22.835938-113.894531-64.304688-155.429688-41.460937-41.535156-96.613281-64.464843-155.292968-64.570312-58.058594-.105469-113.089844 22.785156-154.832032 64.453125-20.5 20.464844-36.625 44.296875-47.925781 70.828125-11.707031 27.492188-17.644531 56.574219-17.644531 86.433594v182.402344c0 26.644531 8.746094 52.886718 24.625 73.890624 17.054688 22.554688 34.675781 33.992188 52.375 33.992188 25.050781 0 40.3125-21.765625 52.578125-39.253906 4.644531-6.625 13.171875-18.785156 17.4375-20.648438 4.175781 1.761719 13.148437 13.761719 17.527344 19.625 13.414062 17.945313 30.109375 40.277344 57.457031 40.277344 27.527344 0 43.078125-23.054688 54.429688-39.890625 4.742187-7.027344 13.5625-20.109375 17.570312-20.109375 4.132812 0 13.058594 12.40625 18.394531 19.820312 12.203125 16.957032 28.917969 40.179688 57.605469 40.179688 14.613281 0 35.734375-6.257812 53.378906-36.070312 10.875-18.371094 16.621094-39.734376 16.621094-61.78125 0-11.046876-8.953125-20-20-20s-20 8.953124-20 20c0 14.882812-3.816406 29.199218-11.042969 41.40625-3.636719 6.140624-10.933593 16.445312-18.957031 16.445312-7.605469 0-15.21875-9.757812-25.140625-23.546875-11.6875-16.242187-26.234375-36.453125-50.859375-36.453125-25.277344 0-39.390625 20.929688-50.734375 37.746094-7.035156 10.429687-15.007813 22.253906-21.265625 22.253906-7.308594 0-17.347656-13.433594-25.417969-24.230469-12.53125-16.765625-26.738281-35.769531-49.582031-35.769531-23.683594 0-37.757812 20.074219-50.175781 37.78125-4.757813 6.789062-9.679688 13.804688-14.253907 18.296875-3.273437 3.21875-5.132812 3.921875-5.570312 3.921875-1.882812 0-9.230469-3.253906-20.46875-18.117188-10.660156-14.097656-16.53125-31.773437-16.53125-49.765624v-182.402344c0-48.503906 19.117188-94.300782 53.832031-128.953125 34.09375-34.035157 78.890625-52.761719 126.175781-52.761719h.324219c71.597657.128906 133.542969 42.347656 162.394531 103.144531-9.773437-5.1875-20.910156-8.144531-32.726562-8.144531-38.597656 0-70 31.402344-70 70s31.402344 70 70 70c19.570312 0 37.285156-8.082031 50-21.078125v60.078125c0 11.046875 8.953125 20 20 20zm-70-99c-16.542969 0-30-13.457031-30-30s13.457031-30 30-30c9.332031 0 17.679688 4.285156 23.1875 10.988281-1.949219-.636719-4.027344-.988281-6.1875-.988281-11.046875 0-20 8.953125-20 20s8.953125 20 20 20c2.160156 0 4.238281-.351562 6.1875-.988281-5.507812 6.703125-13.855469 10.988281-23.1875 10.988281zm-140-100c-38.597656 0-70 31.402344-70 70s31.402344 70 70 70 70-31.402344 70-70-31.402344-70-70-70zm0 100c-16.542969 0-30-13.457031-30-30s13.457031-30 30-30c9.332031 0 17.679688 4.285156 23.1875 10.988281-1.949219-.636719-4.027344-.988281-6.1875-.988281-11.046875 0-20 8.953125-20 20s8.953125 20 20 20c2.160156 0 4.238281-.351562 6.1875-.988281-5.507812 6.703125-13.855469 10.988281-23.1875 10.988281zm0 0" fill="url(#a)"/></svg>
