<svg viewBox="-36 0 512 512.00037" xmlns="http://www.w3.org/2000/svg" xmlns:xlink="http://www.w3.org/1999/xlink"><linearGradient id="a" gradientUnits="userSpaceOnUse" x1="0" x2="440" y1="256" y2="256">
	<stop  offset="0" style="stop-color:#f60400"/>
	<stop  offset="0.021" style="stop-color:#ff2300"/>
	<stop  offset="0.293" style="stop-color:#ff4100"/>
	<stop  offset="0.554" style="stop-color:#ff732a"/>
	<stop  offset="0.796" style="stop-color:#ff953e"/>
	<stop  offset="1" style="stop-color:#ff9f42"/>
</linearGradient><path      d="m 220,512 c 68,0 133,-27 181,-75 48,-48 75,-113 75,-181 C 476,188 449,123 401,75 353,27 288,0 220,0 152,0 87,27 39,75 c -48,48 -75,113 -75,181 0,51 15,100 43,142 7,9 19,12 28,6 9,-7 12,-19 6,-28 C 17,340 4,299 4,256 4,137 101,40 220,40 c 119,0 216,97 216,216 0,119 -97,216 -216,216 -40,0 -78,-11 -112,-31 -9,-6 -21,-3 -27,7 -6,9 -3,21 7,27 39,24 85,37 132,37 z M 125,313 c 0,-11 9,-20 20,-20 11,0 20,9 20,20 0,30 25,55 55,55 30,0 55,-25 55,-55 0,-11 9,-20 20,-20 11,0 20,9 20,20 0,52 -43,95 -95,95 -52,0 -95,-43 -95,-95 z M 81,201 c 0,-28 22,-50 50,-50 28,0 50,22 50,50 0,11 -9,20 -20,20 -11,0 -20,-9 -20,-20 0,-6 -4,-10 -10,-10 -6,0 -10,4 -10,10 0,11 -9,20 -20,20 -11,0 -20,-9 -20,-20 z m 177,0 c 0,-28 22,-50 50,-50 28,0 50,22 50,50 0,11 -9,20 -20,20 -11,0 -20,-9 -20,-20 0,-6 -4,-10 -10,-10 -6,0 -10,4 -10,10 0,11 -9,20 -20,20 -11,0 -20,-9 -20,-20 z" fill="url(#a)"/></svg>
