<?xml version="1.0" encoding="iso-8859-1"?>
<!-- Generator: Adobe Illustrator 19.0.0, SVG Export Plug-In . SVG Version: 6.00 Build 0)  -->
<svg version="1.1" id="Capa_1" xmlns="http://www.w3.org/2000/svg" xmlns:xlink="http://www.w3.org/1999/xlink" x="0px" y="0px"
	 viewBox="0 0 512.001 512.001" style="enable-background:new 0 0 512.001 512.001;" xml:space="preserve">
<linearGradient id="SVGID_1_" gradientUnits="userSpaceOnUse" x1="0" y1="258.0005" x2="512.0009" y2="258.0005" gradientTransform="matrix(1 0 0 -1 0 514.0009)">
	<stop  offset="0" style="stop-color:#f60400"/>
	<stop  offset="0.021" style="stop-color:#ff2300"/>
	<stop  offset="0.293" style="stop-color:#ff4100"/>
	<stop  offset="0.554" style="stop-color:#ff732a"/>
	<stop  offset="0.796" style="stop-color:#ff953e"/>
	<stop  offset="1" style="stop-color:#ff9f42"/>
</linearGradient>
<path style="fill:url(#SVGID_1_);" d="M492.001,330.5c11.046,0,20-8.954,20-20v-167c0-16.027-6.241-31.095-17.574-42.427
	c-11.332-11.33-26.396-17.569-42.416-17.569H452L233.962,83.5c-8.183-35.472-40.024-62.005-77.941-62.013l-76.02-0.024
	c-44.112,0-80,35.888-80,80v309.074c0,0.117-0.002-0.116,0,0l0,0c0,44.112,35.888,80,80,80h352c44.112,0,80-35.888,80-80
	c0-11.046-8.954-20-20-20s-20,8.954-20,20c0,22.056-17.944,40-40,40h-352c-22.056,0-40-17.944-40-39.999V101.463
	c0-0.144,0.003,0.143,0,0l0,0c0-22.056,17.944-40,39.993-40l76.016,0.024c22.051,0.005,39.991,17.948,39.991,40v2.013
	c0,11.046,8.954,20,20,20l236.003,0.004c5.341-0.001,10.362,2.078,14.14,5.855c3.777,3.776,5.857,8.799,5.857,14.141v167
	C472.001,321.546,480.955,330.5,492.001,330.5z"/>
<g>
</g>
<g>
</g>
<g>
</g>
<g>
</g>
<g>
</g>
<g>
</g>
<g>
</g>
<g>
</g>
<g>
</g>
<g>
</g>
<g>
</g>
<g>
</g>
<g>
</g>
<g>
</g>
<g>
</g>
</svg>
