<svg width="240" height="240" viewBox="0 0 240 240" fill="none" xmlns="http://www.w3.org/2000/svg">
<path d="M205.733 189.715C209.803 193.025 215.822 192.427 218.8 188.107C234.153 165.837 241.586 138.938 239.717 111.766C237.63 81.4236 224.1 53.0056 201.862 32.2578C179.623 11.5099 150.336 -0.0197124 119.922 2.53001e-05C89.5082 0.019763 60.2363 11.5874 38.0249 32.3641C15.8135 53.1408 2.31995 81.5763 0.272427 111.921C-1.77509 142.266 7.77621 172.257 26.9952 195.829C46.2141 219.401 73.6668 234.796 103.803 238.902C130.789 242.578 158.124 236.955 181.369 223.121C185.878 220.438 186.875 214.472 183.844 210.19C180.812 205.907 174.902 204.936 170.354 207.552C151.074 218.641 128.58 223.101 106.367 220.075C81.0032 216.62 57.8974 203.662 41.7215 183.822C25.5457 163.983 17.5068 138.741 19.2301 113.201C20.9534 87.6603 32.3104 63.7272 51.0048 46.2403C69.6993 28.7534 94.3363 19.0174 119.935 19.0008C145.533 18.9842 170.183 28.6882 188.9 46.1508C207.617 63.6135 219.005 87.5318 220.761 113.07C222.3 135.435 216.35 157.581 204.001 176.079C201.087 180.443 201.662 186.404 205.733 189.715Z" fill="black"/>
<path d="M139.129 50.1541C140.532 45.0063 137.497 39.6341 132.218 38.8574C127.405 38.1493 122.538 37.8789 117.676 38.0496C112.343 38.2368 108.732 43.2398 109.557 48.5114C110.381 53.7829 114.665 56.985 120 57C122.149 57.006 124.863 57.09 127 57.3221C132.305 57.8982 137.725 55.3019 139.129 50.1541Z" fill="black"/>
<path fill-rule="evenodd" clip-rule="evenodd" d="M146.062 127.396L132.725 180.207C132.548 180.912 133.157 181.564 133.869 181.417C140.571 180.033 147.045 177.525 153.004 173.945C165.499 166.439 174.904 154.718 179.525 140.893C184.146 127.068 183.678 112.048 178.207 98.5367C173.952 88.0284 166.887 78.9704 157.87 72.3042C153.58 69.1327 151.674 63.3586 154.132 58.6233C156.589 53.888 162.462 51.9955 166.869 55.0022C179.922 63.908 190.13 76.5065 196.115 91.2851C203.314 109.063 203.929 128.827 197.849 147.018C191.769 165.208 179.394 180.631 162.952 190.507C149.284 198.717 133.553 202.646 117.767 201.914C113.638 201.722 110.574 198.651 109.815 194.829L91.113 128.103C86.0342 109.972 99.6636 92 118.493 92C137.019 92 150.598 109.433 146.062 127.396ZM119 111C112.917 111 108.464 116.733 109.969 122.627L118.019 163.96C118.229 165.039 119.772 165.039 119.982 163.96L128.032 122.627C129.536 116.733 125.083 111 119 111Z" fill="black"/>
</svg>
