<svg width="650" height="181" viewBox="0 0 650 181" fill="none" xmlns="http://www.w3.org/2000/svg">
<path d="M45.262 43.522C49.4313 44.7233 52.682 46.914 55.014 50.094C57.4167 53.274 58.618 57.1253 58.618 61.648C58.618 65.9587 57.452 69.704 55.12 72.884C52.788 76.064 49.4667 78.5373 45.156 80.304C40.916 82 35.934 82.848 30.21 82.848C25.6167 82.848 21.2 82.2473 16.96 81.046C12.72 79.774 9.04533 77.972 5.936 75.64C4.73467 74.7213 3.88667 73.7673 3.392 72.778C2.89733 71.718 2.65 70.4813 2.65 69.068C2.65 66.8773 3.25067 65.04 4.452 63.556C5.65333 62.0013 7.13733 61.224 8.904 61.224C9.89333 61.224 10.7767 61.4007 11.554 61.754C12.3313 62.0367 13.3913 62.5313 14.734 63.238C15.0167 63.3793 15.3347 63.556 15.688 63.768C16.112 63.9093 16.5713 64.086 17.066 64.298C19.3273 65.4287 21.3413 66.312 23.108 66.948C24.9453 67.5133 26.9947 67.796 29.256 67.796C33.2133 67.796 36.04 67.16 37.736 65.888C39.5027 64.616 40.386 62.496 40.386 59.528C40.386 56.772 39.5027 54.7933 37.736 53.592C35.9693 52.3907 33.072 51.79 29.044 51.79H22.472C20.352 51.79 18.6913 51.048 17.49 49.564C16.2887 48.08 15.688 46.3133 15.688 44.264C15.688 42.2147 16.2887 40.448 17.49 38.964C18.6913 37.48 20.352 36.738 22.472 36.738H27.136C31.0227 36.738 33.8493 36.1727 35.616 35.042C37.3827 33.9113 38.266 32.1093 38.266 29.636C38.266 27.0213 37.4887 25.0073 35.934 23.594C34.3793 22.11 32.224 21.368 29.468 21.368C27.4893 21.368 25.6167 21.686 23.85 22.322C22.154 22.958 20.246 23.806 18.126 24.866L15.9 25.926C14.5573 26.6327 13.4973 27.1627 12.72 27.516C11.9427 27.7987 11.0593 27.94 10.07 27.94C8.30333 27.94 6.81933 27.198 5.618 25.714C4.41667 24.1593 3.816 22.2867 3.816 20.096C3.816 18.612 4.06333 17.3753 4.558 16.386C5.05267 15.3967 5.90067 14.4427 7.102 13.524C10.1407 11.2627 13.7093 9.496 17.808 8.224C21.9773 6.952 26.182 6.316 30.422 6.316C35.6513 6.316 40.2447 7.16399 44.202 8.85999C48.23 10.556 51.304 12.9587 53.424 16.068C55.6147 19.1773 56.71 22.7813 56.71 26.88C56.71 30.7667 55.6853 34.194 53.636 37.162C51.6573 40.0593 48.866 42.1793 45.262 43.522ZM92.1786 82.954C82.9213 82.954 75.8546 79.668 70.9786 73.096C66.1026 66.524 63.6646 57.0193 63.6646 44.582C63.6646 32.2153 66.1026 22.746 70.9786 16.174C75.8546 9.60199 82.9213 6.316 92.1786 6.316C101.365 6.316 108.397 9.60199 113.273 16.174C118.219 22.746 120.693 32.2153 120.693 44.582C120.693 57.0193 118.255 66.524 113.379 73.096C108.503 79.668 101.436 82.954 92.1786 82.954ZM92.1786 68.22C95.5706 68.22 98.0086 66.3827 99.4926 62.708C100.977 59.0333 101.719 52.9913 101.719 44.582C101.719 36.2433 100.977 30.2367 99.4926 26.562C98.0086 22.8873 95.5706 21.05 92.1786 21.05C88.7866 21.05 86.3486 22.8873 84.8646 26.562C83.3806 30.166 82.6386 36.1727 82.6386 44.582C82.6386 52.9913 83.3806 59.0333 84.8646 62.708C86.3486 66.3827 88.7866 68.22 92.1786 68.22ZM182.781 82.954C177.128 82.954 171.863 82.3533 166.987 81.152C162.182 79.88 158.225 78.1487 155.115 75.958C153.914 75.0393 153.031 74.0853 152.465 73.096C151.971 72.1067 151.723 70.8347 151.723 69.28C151.723 67.16 152.359 65.3227 153.631 63.768C154.903 62.2133 156.387 61.436 158.083 61.436C159.002 61.436 159.885 61.5773 160.733 61.86C161.581 62.1427 162.641 62.6727 163.913 63.45C166.811 65.0753 169.673 66.2413 172.499 66.948C175.397 67.6547 178.647 68.008 182.251 68.008C186.421 68.008 189.565 67.4073 191.685 66.206C193.876 64.934 194.971 63.0967 194.971 60.694C194.971 59.0687 193.947 57.6907 191.897 56.56C189.919 55.3587 186.103 54.1927 180.449 53.062C173.453 51.578 167.977 49.8113 164.019 47.762C160.062 45.7127 157.271 43.31 155.645 40.554C154.091 37.7273 153.313 34.3353 153.313 30.378C153.313 25.8553 154.656 21.7567 157.341 18.082C160.027 14.4073 163.701 11.5453 168.365 9.496C173.1 7.376 178.4 6.316 184.265 6.316C189.424 6.316 194.017 6.88133 198.045 8.012C202.073 9.14266 205.748 10.9093 209.069 13.312C210.341 14.2307 211.225 15.22 211.719 16.28C212.285 17.2693 212.567 18.506 212.567 19.99C212.567 22.11 211.931 23.9473 210.659 25.502C209.458 27.0567 208.009 27.834 206.313 27.834C205.395 27.834 204.547 27.728 203.769 27.516C202.992 27.2333 201.897 26.668 200.483 25.82C200.13 25.608 199.105 25.078 197.409 24.23C195.784 23.3113 193.841 22.6047 191.579 22.11C189.389 21.5447 186.986 21.262 184.371 21.262C180.767 21.262 177.87 21.9687 175.679 23.382C173.489 24.7247 172.393 26.5267 172.393 28.788C172.393 30.1307 172.782 31.226 173.559 32.074C174.337 32.922 175.785 33.77 177.905 34.618C180.025 35.3953 183.17 36.208 187.339 37.056C194.123 38.54 199.459 40.342 203.345 42.462C207.232 44.5113 209.988 46.914 211.613 49.67C213.239 52.426 214.051 55.6767 214.051 59.422C214.051 64.086 212.744 68.22 210.129 71.824C207.515 75.3573 203.84 78.1133 199.105 80.092C194.441 82 189 82.954 182.781 82.954ZM230.912 82C228.015 82 225.789 81.2227 224.234 79.668C222.679 78.1133 221.902 75.8873 221.902 72.99V16.28C221.902 13.3827 222.679 11.1567 224.234 9.602C225.789 8.04733 228.015 7.27 230.912 7.27H267.588C270.627 7.27 272.923 7.906 274.478 9.178C276.033 10.45 276.81 12.2873 276.81 14.69C276.81 19.778 273.736 22.322 267.588 22.322H240.876V36.526H265.468C271.616 36.526 274.69 39.0347 274.69 44.052C274.69 46.4547 273.913 48.292 272.358 49.564C270.803 50.836 268.507 51.472 265.468 51.472H240.876V66.948H267.588C273.736 66.948 276.81 69.492 276.81 74.58C276.81 76.9827 276.033 78.82 274.478 80.092C272.923 81.364 270.627 82 267.588 82H230.912ZM317.477 82.954C309.987 82.954 303.415 81.3993 297.761 78.29C292.179 75.1807 287.833 70.7287 284.723 64.934C281.685 59.1393 280.165 52.3553 280.165 44.582C280.165 36.8793 281.685 30.1307 284.723 24.336C287.833 18.5413 292.179 14.0893 297.761 10.98C303.415 7.87066 309.987 6.316 317.477 6.316C326.452 6.316 334.331 8.68333 341.115 13.418C342.317 14.266 343.165 15.1847 343.659 16.174C344.225 17.1633 344.507 18.4353 344.507 19.99C344.507 22.1807 343.871 24.0533 342.599 25.608C341.398 27.092 339.914 27.834 338.147 27.834C337.087 27.834 336.133 27.6927 335.285 27.41C334.437 27.0567 333.448 26.5267 332.317 25.82C329.844 24.336 327.512 23.276 325.321 22.64C323.131 22.004 320.869 21.686 318.537 21.686C312.248 21.686 307.549 23.594 304.439 27.41C301.401 31.1553 299.881 36.8793 299.881 44.582C299.881 52.3553 301.401 58.15 304.439 61.966C307.549 65.7113 312.248 67.584 318.537 67.584C320.657 67.584 322.707 67.266 324.685 66.63C326.664 65.9233 329.208 64.8633 332.317 63.45C333.801 62.6727 334.897 62.1427 335.603 61.86C336.31 61.5773 337.158 61.436 338.147 61.436C339.914 61.436 341.398 62.2133 342.599 63.768C343.871 65.252 344.507 67.0893 344.507 69.28C344.507 70.764 344.225 72.036 343.659 73.096C343.165 74.0853 342.317 75.004 341.115 75.852C334.331 80.5867 326.452 82.954 317.477 82.954ZM384.587 82.954C376.955 82.954 370.312 81.3993 364.659 78.29C359.076 75.11 354.766 70.658 351.727 64.934C348.688 59.1393 347.169 52.3553 347.169 44.582C347.169 36.8087 348.688 30.06 351.727 24.336C354.766 18.5413 359.076 14.0893 364.659 10.98C370.312 7.87066 376.955 6.316 384.587 6.316C392.219 6.316 398.826 7.87066 404.409 10.98C410.062 14.0893 414.373 18.5413 417.341 24.336C420.38 30.06 421.899 36.8087 421.899 44.582C421.899 52.3553 420.38 59.1393 417.341 64.934C414.302 70.658 409.956 75.11 404.303 78.29C398.72 81.3993 392.148 82.954 384.587 82.954ZM384.587 68.008C390.24 68.008 394.657 66.0293 397.837 62.072C401.017 58.044 402.607 52.214 402.607 44.582C402.607 36.95 400.982 31.1553 397.731 27.198C394.551 23.2407 390.17 21.262 384.587 21.262C378.934 21.262 374.517 23.2407 371.337 27.198C368.157 31.0847 366.567 36.8793 366.567 44.582C366.567 52.2847 368.157 58.1147 371.337 62.072C374.517 66.0293 378.934 68.008 384.587 68.008ZM487.714 6.74C490.4 6.74 492.59 7.62333 494.286 9.38999C496.053 11.1567 496.936 13.4533 496.936 16.28V72.99C496.936 75.8873 496.088 78.2193 494.392 79.986C492.696 81.7527 490.506 82.636 487.82 82.636C484.64 82.636 482.238 81.576 480.612 79.456L448.388 39.282V72.99C448.388 75.8873 447.576 78.2193 445.95 79.986C444.325 81.7527 442.134 82.636 439.378 82.636C436.693 82.636 434.502 81.7527 432.806 79.986C431.11 78.2193 430.262 75.8873 430.262 72.99V16.28C430.262 13.4533 431.11 11.1567 432.806 9.38999C434.502 7.62333 436.693 6.74 439.378 6.74C442.417 6.74 444.784 7.8 446.48 9.92L478.704 49.988V16.28C478.704 13.3827 479.517 11.086 481.142 9.38999C482.838 7.62333 485.029 6.74 487.714 6.74ZM516.317 82C513.42 82 511.194 81.2227 509.639 79.668C508.084 78.1133 507.307 75.8873 507.307 72.99V16.28C507.307 13.3827 508.084 11.1567 509.639 9.602C511.194 8.04733 513.42 7.27 516.317 7.27H537.729C545.997 7.27 553.099 8.78933 559.035 11.828C565.042 14.796 569.635 19.0713 572.815 24.654C575.995 30.2367 577.585 36.8793 577.585 44.582C577.585 52.3553 575.995 59.0687 572.815 64.722C569.706 70.3047 565.148 74.58 559.141 77.548C553.205 80.516 546.068 82 537.729 82H516.317ZM536.351 66.312C543.63 66.312 549.071 64.5453 552.675 61.012C556.35 57.408 558.187 51.9313 558.187 44.582C558.187 37.2327 556.35 31.7913 552.675 28.258C549.071 24.7247 543.63 22.958 536.351 22.958H526.811V66.312H536.351ZM614.201 82.954C608.548 82.954 603.283 82.3533 598.407 81.152C593.602 79.88 589.645 78.1487 586.535 75.958C585.334 75.0393 584.451 74.0853 583.885 73.096C583.391 72.1067 583.143 70.8347 583.143 69.28C583.143 67.16 583.779 65.3227 585.051 63.768C586.323 62.2133 587.807 61.436 589.503 61.436C590.422 61.436 591.305 61.5773 592.153 61.86C593.001 62.1427 594.061 62.6727 595.333 63.45C598.231 65.0753 601.093 66.2413 603.919 66.948C606.817 67.6547 610.067 68.008 613.671 68.008C617.841 68.008 620.985 67.4073 623.105 66.206C625.296 64.934 626.391 63.0967 626.391 60.694C626.391 59.0687 625.367 57.6907 623.317 56.56C621.339 55.3587 617.523 54.1927 611.869 53.062C604.873 51.578 599.397 49.8113 595.439 47.762C591.482 45.7127 588.691 43.31 587.065 40.554C585.511 37.7273 584.733 34.3353 584.733 30.378C584.733 25.8553 586.076 21.7567 588.761 18.082C591.447 14.4073 595.121 11.5453 599.785 9.496C604.52 7.376 609.82 6.316 615.685 6.316C620.844 6.316 625.437 6.88133 629.465 8.012C633.493 9.14266 637.168 10.9093 640.489 13.312C641.761 14.2307 642.645 15.22 643.139 16.28C643.705 17.2693 643.987 18.506 643.987 19.99C643.987 22.11 643.351 23.9473 642.079 25.502C640.878 27.0567 639.429 27.834 637.733 27.834C636.815 27.834 635.967 27.728 635.189 27.516C634.412 27.2333 633.317 26.668 631.903 25.82C631.55 25.608 630.525 25.078 628.829 24.23C627.204 23.3113 625.261 22.6047 622.999 22.11C620.809 21.5447 618.406 21.262 615.791 21.262C612.187 21.262 609.29 21.9687 607.099 23.382C604.909 24.7247 603.813 26.5267 603.813 28.788C603.813 30.1307 604.202 31.226 604.979 32.074C605.757 32.922 607.205 33.77 609.325 34.618C611.445 35.3953 614.59 36.208 618.759 37.056C625.543 38.54 630.879 40.342 634.765 42.462C638.652 44.5113 641.408 46.914 643.033 49.67C644.659 52.426 645.471 55.6767 645.471 59.422C645.471 64.086 644.164 68.22 641.549 71.824C638.935 75.3573 635.26 78.1133 630.525 80.092C625.861 82 620.42 82.954 614.201 82.954Z" fill="black"/>
<path d="M32.319 161.729C26.487 161.729 21.411 160.541 17.091 158.165C12.825 155.735 9.531 152.333 7.209 147.959C4.887 143.531 3.726 138.347 3.726 132.407C3.726 126.467 4.887 121.31 7.209 116.936C9.531 112.508 12.825 109.106 17.091 106.73C21.411 104.354 26.487 103.166 32.319 103.166C38.151 103.166 43.2 104.354 47.466 106.73C51.786 109.106 55.08 112.508 57.348 116.936C59.67 121.31 60.831 126.467 60.831 132.407C60.831 138.347 59.67 143.531 57.348 147.959C55.026 152.333 51.705 155.735 47.385 158.165C43.119 160.541 38.097 161.729 32.319 161.729ZM32.319 150.308C36.639 150.308 40.014 148.796 42.444 145.772C44.874 142.694 46.089 138.239 46.089 132.407C46.089 126.575 44.847 122.147 42.363 119.123C39.933 116.099 36.585 114.587 32.319 114.587C27.999 114.587 24.624 116.099 22.194 119.123C19.764 122.093 18.549 126.521 18.549 132.407C18.549 138.293 19.764 142.748 22.194 145.772C24.624 148.796 27.999 150.308 32.319 150.308ZM74.5928 161.486C72.3788 161.486 70.5968 160.811 69.2468 159.461C67.8968 158.111 67.2218 156.329 67.2218 154.115V110.78C67.2218 108.566 67.8158 106.865 69.0038 105.677C70.1918 104.489 71.8928 103.895 74.1068 103.895H101.323C103.753 103.895 105.535 104.381 106.669 105.353C107.803 106.271 108.37 107.756 108.37 109.808C108.37 111.806 107.776 113.264 106.588 114.182C105.454 115.1 103.699 115.559 101.323 115.559H81.8828V126.089H99.7028C102.079 126.089 103.834 126.575 104.968 127.547C106.156 128.519 106.75 130.004 106.75 132.002C106.75 134 106.156 135.458 104.968 136.376C103.834 137.294 102.079 137.753 99.7028 137.753H81.8828V154.115C81.8828 156.383 81.2078 158.192 79.8578 159.542C78.5618 160.838 76.8068 161.486 74.5928 161.486ZM180.562 149.822C181.966 151.172 182.668 152.738 182.668 154.52C182.668 156.302 181.993 157.868 180.643 159.218C179.293 160.568 177.7 161.243 175.864 161.243C173.866 161.243 172.03 160.379 170.356 158.651L147.271 134.999V154.115C147.271 156.383 146.596 158.192 145.246 159.542C143.896 160.838 142.06 161.486 139.738 161.486C137.47 161.486 135.661 160.838 134.311 159.542C133.015 158.192 132.367 156.383 132.367 154.115V110.78C132.367 108.566 133.015 106.811 134.311 105.515C135.661 104.165 137.47 103.49 139.738 103.49C142.06 103.49 143.896 104.165 145.246 105.515C146.596 106.811 147.271 108.566 147.271 110.78V128.6L170.032 105.677C171.436 104.219 173.029 103.49 174.811 103.49C176.593 103.49 178.159 104.165 179.509 105.515C180.859 106.811 181.534 108.35 181.534 110.132C181.534 111.914 180.751 113.561 179.185 115.073L162.58 131.354L180.562 149.822ZM230.396 103.49C232.448 103.49 234.122 104.165 235.418 105.515C236.768 106.865 237.443 108.62 237.443 110.78V154.115C237.443 156.329 236.795 158.111 235.499 159.461C234.203 160.811 232.529 161.486 230.477 161.486C228.047 161.486 226.211 160.676 224.969 159.056L200.345 128.357V154.115C200.345 156.329 199.724 158.111 198.482 159.461C197.24 160.811 195.566 161.486 193.46 161.486C191.408 161.486 189.734 160.811 188.438 159.461C187.142 158.111 186.494 156.329 186.494 154.115V110.78C186.494 108.62 187.142 106.865 188.438 105.515C189.734 104.165 191.408 103.49 193.46 103.49C195.782 103.49 197.591 104.3 198.887 105.92L223.511 136.538V110.78C223.511 108.566 224.132 106.811 225.374 105.515C226.67 104.165 228.344 103.49 230.396 103.49ZM272.503 161.729C266.671 161.729 261.595 160.541 257.275 158.165C253.009 155.735 249.715 152.333 247.393 147.959C245.071 143.531 243.91 138.347 243.91 132.407C243.91 126.467 245.071 121.31 247.393 116.936C249.715 112.508 253.009 109.106 257.275 106.73C261.595 104.354 266.671 103.166 272.503 103.166C278.335 103.166 283.384 104.354 287.65 106.73C291.97 109.106 295.264 112.508 297.532 116.936C299.854 121.31 301.015 126.467 301.015 132.407C301.015 138.347 299.854 143.531 297.532 147.959C295.21 152.333 291.889 155.735 287.569 158.165C283.303 160.541 278.281 161.729 272.503 161.729ZM272.503 150.308C276.823 150.308 280.198 148.796 282.628 145.772C285.058 142.694 286.273 138.239 286.273 132.407C286.273 126.575 285.031 122.147 282.547 119.123C280.117 116.099 276.769 114.587 272.503 114.587C268.183 114.587 264.808 116.099 262.378 119.123C259.948 122.093 258.733 126.521 258.733 132.407C258.733 138.293 259.948 142.748 262.378 145.772C264.808 148.796 268.183 150.308 272.503 150.308ZM375.569 108.026C376.109 106.514 376.973 105.353 378.161 104.543C379.403 103.733 380.753 103.328 382.211 103.328C383.993 103.328 385.532 103.895 386.828 105.029C388.178 106.163 388.853 107.702 388.853 109.646C388.853 110.51 388.637 111.59 388.205 112.886L371.924 156.95C371.384 158.462 370.385 159.65 368.927 160.514C367.523 161.324 365.957 161.729 364.229 161.729C362.501 161.729 360.935 161.324 359.531 160.514C358.127 159.65 357.155 158.462 356.615 156.95L346.085 126.899L335.069 156.95C334.475 158.462 333.476 159.65 332.072 160.514C330.668 161.324 329.129 161.729 327.455 161.729C325.727 161.729 324.161 161.324 322.757 160.514C321.353 159.65 320.381 158.462 319.841 156.95L303.479 112.886C303.101 111.806 302.912 110.78 302.912 109.808C302.912 107.81 303.614 106.244 305.018 105.11C306.476 103.922 308.15 103.328 310.04 103.328C311.552 103.328 312.929 103.733 314.171 104.543C315.467 105.299 316.385 106.46 316.925 108.026L328.022 139.94L339.767 108.026C340.307 106.514 341.171 105.353 342.359 104.543C343.601 103.733 344.951 103.328 346.409 103.328C347.867 103.328 349.19 103.733 350.378 104.543C351.566 105.353 352.43 106.541 352.97 108.107L363.986 140.669L375.569 108.026ZM400.929 161C398.715 161 397.014 160.406 395.826 159.218C394.638 158.03 394.044 156.302 394.044 154.034V110.78C394.044 108.566 394.692 106.811 395.988 105.515C397.338 104.165 399.147 103.49 401.415 103.49C403.737 103.49 405.573 104.165 406.923 105.515C408.273 106.811 408.948 108.566 408.948 110.78V148.931H427.578C432.276 148.931 434.625 150.956 434.625 155.006C434.625 157.058 434.031 158.57 432.843 159.542C431.709 160.514 429.954 161 427.578 161H400.929ZM444.853 161C442.639 161 440.938 160.406 439.75 159.218C438.562 158.03 437.968 156.329 437.968 154.115V110.78C437.968 108.566 438.562 106.865 439.75 105.677C440.938 104.489 442.639 103.895 444.853 103.895H472.879C475.201 103.895 476.956 104.381 478.144 105.353C479.332 106.325 479.926 107.729 479.926 109.565C479.926 113.453 477.577 115.397 472.879 115.397H452.467V126.251H471.259C475.957 126.251 478.306 128.168 478.306 132.002C478.306 133.838 477.712 135.242 476.524 136.214C475.336 137.186 473.581 137.672 471.259 137.672H452.467V149.498H472.879C477.577 149.498 479.926 151.442 479.926 155.33C479.926 157.166 479.332 158.57 478.144 159.542C476.956 160.514 475.201 161 472.879 161H444.853ZM490.754 161C488.54 161 486.839 160.406 485.651 159.218C484.463 158.03 483.869 156.329 483.869 154.115V110.78C483.869 108.566 484.463 106.865 485.651 105.677C486.839 104.489 488.54 103.895 490.754 103.895H507.116C513.434 103.895 518.861 105.056 523.397 107.378C527.987 109.646 531.497 112.913 533.927 117.179C536.357 121.445 537.572 126.521 537.572 132.407C537.572 138.347 536.357 143.477 533.927 147.797C531.551 152.063 528.068 155.33 523.478 157.598C518.942 159.866 513.488 161 507.116 161H490.754ZM506.063 149.012C511.625 149.012 515.783 147.662 518.537 144.962C521.345 142.208 522.749 138.023 522.749 132.407C522.749 126.791 521.345 122.633 518.537 119.933C515.783 117.233 511.625 115.883 506.063 115.883H498.773V149.012H506.063ZM588.799 128.762C590.581 128.762 591.985 129.275 593.011 130.301C594.091 131.273 594.631 132.596 594.631 134.27V148.364C594.631 151.064 594.415 153.143 593.983 154.601C593.605 156.005 592.876 157.112 591.796 157.922C590.77 158.732 589.204 159.434 587.098 160.028C584.992 160.568 582.643 160.973 580.051 161.243C577.513 161.567 575.137 161.729 572.923 161.729C566.713 161.729 561.313 160.568 556.723 158.246C552.187 155.87 548.704 152.495 546.274 148.121C543.844 143.693 542.629 138.455 542.629 132.407C542.629 126.467 543.844 121.31 546.274 116.936C548.704 112.508 552.16 109.106 556.642 106.73C561.124 104.354 566.362 103.166 572.356 103.166C576.136 103.166 579.511 103.625 582.481 104.543C585.505 105.407 588.313 106.757 590.905 108.593C591.823 109.241 592.471 109.943 592.849 110.699C593.281 111.455 593.497 112.427 593.497 113.615C593.497 115.289 593.038 116.72 592.12 117.908C591.202 119.042 590.095 119.609 588.799 119.609C587.935 119.609 587.179 119.501 586.531 119.285C585.937 119.015 585.154 118.583 584.182 117.989C582.184 116.909 580.294 116.126 578.512 115.64C576.784 115.154 574.894 114.911 572.842 114.911C567.712 114.911 563.878 116.342 561.34 119.204C558.856 122.066 557.614 126.467 557.614 132.407C557.614 138.509 558.91 143.045 561.502 146.015C564.148 148.931 568.171 150.389 573.571 150.389C576.163 150.389 578.728 150.119 581.266 149.579V138.968H575.434C573.652 138.968 572.275 138.536 571.303 137.672C570.331 136.754 569.845 135.485 569.845 133.865C569.845 132.245 570.331 131.003 571.303 130.139C572.275 129.221 573.652 128.762 575.434 128.762H588.799ZM608.818 161C606.604 161 604.903 160.406 603.715 159.218C602.527 158.03 601.933 156.329 601.933 154.115V110.78C601.933 108.566 602.527 106.865 603.715 105.677C604.903 104.489 606.604 103.895 608.818 103.895H636.844C639.166 103.895 640.921 104.381 642.109 105.353C643.297 106.325 643.891 107.729 643.891 109.565C643.891 113.453 641.542 115.397 636.844 115.397H616.432V126.251H635.224C639.922 126.251 642.271 128.168 642.271 132.002C642.271 133.838 641.677 135.242 640.489 136.214C639.301 137.186 637.546 137.672 635.224 137.672H616.432V149.498H636.844C641.542 149.498 643.891 151.442 643.891 155.33C643.891 157.166 643.297 158.57 642.109 159.542C640.921 160.514 639.166 161 636.844 161H608.818Z" fill="black"/>
</svg>
