<svg width="914" height="240" viewBox="0 0 914 240" fill="none" xmlns="http://www.w3.org/2000/svg">
<path d="M205.733 189.715C209.803 193.025 215.822 192.427 218.8 188.107C234.153 165.837 241.586 138.938 239.717 111.766C237.63 81.4236 224.1 53.0056 201.862 32.2578C179.623 11.5099 150.336 -0.0197124 119.922 2.53001e-05C89.5082 0.019763 60.2363 11.5874 38.0249 32.3641C15.8135 53.1408 2.31995 81.5763 0.272427 111.921C-1.77509 142.266 7.77621 172.257 26.9952 195.829C46.2141 219.401 73.6668 234.796 103.803 238.902C130.789 242.578 158.124 236.955 181.369 223.121C185.878 220.438 186.875 214.472 183.844 210.19C180.812 205.907 174.902 204.936 170.354 207.552C151.074 218.641 128.58 223.101 106.367 220.075C81.0032 216.62 57.8974 203.662 41.7215 183.822C25.5457 163.983 17.5068 138.741 19.2301 113.201C20.9534 87.6603 32.3104 63.7272 51.0048 46.2403C69.6993 28.7534 94.3363 19.0174 119.935 19.0008C145.533 18.9842 170.183 28.6882 188.9 46.1508C207.617 63.6135 219.005 87.5318 220.761 113.07C222.3 135.435 216.35 157.581 204.001 176.079C201.087 180.443 201.662 186.404 205.733 189.715Z" fill="black"/>
<path d="M139.129 50.1541C140.532 45.0063 137.497 39.6341 132.218 38.8574C127.405 38.1493 122.538 37.8789 117.676 38.0496C112.343 38.2368 108.732 43.2398 109.557 48.5114C110.381 53.7829 114.665 56.985 120 57C122.149 57.006 124.863 57.09 127 57.3221C132.305 57.8982 137.725 55.3019 139.129 50.1541Z" fill="black"/>
<path fill-rule="evenodd" clip-rule="evenodd" d="M146.062 127.396L132.725 180.207C132.548 180.912 133.157 181.564 133.869 181.417C140.571 180.033 147.045 177.525 153.004 173.945C165.499 166.439 174.904 154.718 179.525 140.893C184.146 127.068 183.678 112.048 178.207 98.5367C173.952 88.0284 166.887 78.9704 157.87 72.3042C153.58 69.1327 151.674 63.3586 154.132 58.6233C156.589 53.888 162.462 51.9955 166.869 55.0022C179.922 63.908 190.13 76.5065 196.115 91.2851C203.314 109.063 203.929 128.827 197.849 147.018C191.769 165.208 179.394 180.631 162.952 190.507C149.284 198.717 133.553 202.646 117.767 201.914C113.638 201.722 110.574 198.651 109.815 194.829L91.113 128.103C86.0342 109.972 99.6636 92 118.493 92C137.019 92 150.598 109.433 146.062 127.396ZM119 111C112.917 111 108.464 116.733 109.969 122.627L118.019 163.96C118.229 165.039 119.772 165.039 119.982 163.96L128.032 122.627C129.536 116.733 125.083 111 119 111Z" fill="black"/>
<path d="M309.262 83.522C313.431 84.7233 316.682 86.914 319.014 90.094C321.417 93.274 322.618 97.1253 322.618 101.648C322.618 105.959 321.452 109.704 319.12 112.884C316.788 116.064 313.467 118.537 309.156 120.304C304.916 122 299.934 122.848 294.21 122.848C289.617 122.848 285.2 122.247 280.96 121.046C276.72 119.774 273.045 117.972 269.936 115.64C268.735 114.721 267.887 113.767 267.392 112.778C266.897 111.718 266.65 110.481 266.65 109.068C266.65 106.877 267.251 105.04 268.452 103.556C269.653 102.001 271.137 101.224 272.904 101.224C273.893 101.224 274.777 101.401 275.554 101.754C276.331 102.037 277.391 102.531 278.734 103.238C279.017 103.379 279.335 103.556 279.688 103.768C280.112 103.909 280.571 104.086 281.066 104.298C283.327 105.429 285.341 106.312 287.108 106.948C288.945 107.513 290.995 107.796 293.256 107.796C297.213 107.796 300.04 107.16 301.736 105.888C303.503 104.616 304.386 102.496 304.386 99.528C304.386 96.772 303.503 94.7933 301.736 93.592C299.969 92.3907 297.072 91.79 293.044 91.79H286.472C284.352 91.79 282.691 91.048 281.49 89.564C280.289 88.08 279.688 86.3133 279.688 84.264C279.688 82.2147 280.289 80.448 281.49 78.964C282.691 77.48 284.352 76.738 286.472 76.738H291.136C295.023 76.738 297.849 76.1727 299.616 75.042C301.383 73.9113 302.266 72.1093 302.266 69.636C302.266 67.0213 301.489 65.0073 299.934 63.594C298.379 62.11 296.224 61.368 293.468 61.368C291.489 61.368 289.617 61.686 287.85 62.322C286.154 62.958 284.246 63.806 282.126 64.866L279.9 65.926C278.557 66.6327 277.497 67.1627 276.72 67.516C275.943 67.7987 275.059 67.94 274.07 67.94C272.303 67.94 270.819 67.198 269.618 65.714C268.417 64.1593 267.816 62.2867 267.816 60.096C267.816 58.612 268.063 57.3753 268.558 56.386C269.053 55.3967 269.901 54.4427 271.102 53.524C274.141 51.2627 277.709 49.496 281.808 48.224C285.977 46.952 290.182 46.316 294.422 46.316C299.651 46.316 304.245 47.164 308.202 48.86C312.23 50.556 315.304 52.9587 317.424 56.068C319.615 59.1773 320.71 62.7813 320.71 66.88C320.71 70.7667 319.685 74.194 317.636 77.162C315.657 80.0593 312.866 82.1793 309.262 83.522ZM356.179 122.954C346.921 122.954 339.855 119.668 334.979 113.096C330.103 106.524 327.665 97.0193 327.665 84.582C327.665 72.2153 330.103 62.746 334.979 56.174C339.855 49.602 346.921 46.316 356.179 46.316C365.365 46.316 372.397 49.602 377.273 56.174C382.219 62.746 384.693 72.2153 384.693 84.582C384.693 97.0193 382.255 106.524 377.379 113.096C372.503 119.668 365.436 122.954 356.179 122.954ZM356.179 108.22C359.571 108.22 362.009 106.383 363.493 102.708C364.977 99.0333 365.719 92.9913 365.719 84.582C365.719 76.2433 364.977 70.2367 363.493 66.562C362.009 62.8873 359.571 61.05 356.179 61.05C352.787 61.05 350.349 62.8873 348.865 66.562C347.381 70.166 346.639 76.1727 346.639 84.582C346.639 92.9913 347.381 99.0333 348.865 102.708C350.349 106.383 352.787 108.22 356.179 108.22ZM446.781 122.954C441.128 122.954 435.863 122.353 430.987 121.152C426.182 119.88 422.225 118.149 419.115 115.958C417.914 115.039 417.031 114.085 416.465 113.096C415.971 112.107 415.723 110.835 415.723 109.28C415.723 107.16 416.359 105.323 417.631 103.768C418.903 102.213 420.387 101.436 422.083 101.436C423.002 101.436 423.885 101.577 424.733 101.86C425.581 102.143 426.641 102.673 427.913 103.45C430.811 105.075 433.673 106.241 436.499 106.948C439.397 107.655 442.647 108.008 446.251 108.008C450.421 108.008 453.565 107.407 455.685 106.206C457.876 104.934 458.971 103.097 458.971 100.694C458.971 99.0687 457.947 97.6907 455.897 96.56C453.919 95.3587 450.103 94.1927 444.449 93.062C437.453 91.578 431.977 89.8113 428.019 87.762C424.062 85.7127 421.271 83.31 419.645 80.554C418.091 77.7273 417.313 74.3353 417.313 70.378C417.313 65.8553 418.656 61.7567 421.341 58.082C424.027 54.4073 427.701 51.5453 432.365 49.496C437.1 47.376 442.4 46.316 448.265 46.316C453.424 46.316 458.017 46.8813 462.045 48.012C466.073 49.1427 469.748 50.9093 473.069 53.312C474.341 54.2307 475.225 55.22 475.719 56.28C476.285 57.2693 476.567 58.506 476.567 59.99C476.567 62.11 475.931 63.9473 474.659 65.502C473.458 67.0567 472.009 67.834 470.313 67.834C469.395 67.834 468.547 67.728 467.769 67.516C466.992 67.2333 465.897 66.668 464.483 65.82C464.13 65.608 463.105 65.078 461.409 64.23C459.784 63.3113 457.841 62.6047 455.579 62.11C453.389 61.5447 450.986 61.262 448.371 61.262C444.767 61.262 441.87 61.9687 439.679 63.382C437.489 64.7247 436.393 66.5267 436.393 68.788C436.393 70.1307 436.782 71.226 437.559 72.074C438.337 72.922 439.785 73.77 441.905 74.618C444.025 75.3953 447.17 76.208 451.339 77.056C458.123 78.54 463.459 80.342 467.345 82.462C471.232 84.5113 473.988 86.914 475.613 89.67C477.239 92.426 478.051 95.6767 478.051 99.422C478.051 104.086 476.744 108.22 474.129 111.824C471.515 115.357 467.84 118.113 463.105 120.092C458.441 122 453 122.954 446.781 122.954ZM494.912 122C492.015 122 489.789 121.223 488.234 119.668C486.679 118.113 485.902 115.887 485.902 112.99V56.28C485.902 53.3827 486.679 51.1567 488.234 49.602C489.789 48.0473 492.015 47.27 494.912 47.27H531.588C534.627 47.27 536.923 47.906 538.478 49.178C540.033 50.45 540.81 52.2873 540.81 54.69C540.81 59.778 537.736 62.322 531.588 62.322H504.876V76.526H529.468C535.616 76.526 538.69 79.0347 538.69 84.052C538.69 86.4547 537.913 88.292 536.358 89.564C534.803 90.836 532.507 91.472 529.468 91.472H504.876V106.948H531.588C537.736 106.948 540.81 109.492 540.81 114.58C540.81 116.983 540.033 118.82 538.478 120.092C536.923 121.364 534.627 122 531.588 122H494.912ZM581.477 122.954C573.987 122.954 567.415 121.399 561.761 118.29C556.179 115.181 551.833 110.729 548.723 104.934C545.685 99.1393 544.165 92.3553 544.165 84.582C544.165 76.8793 545.685 70.1307 548.723 64.336C551.833 58.5413 556.179 54.0893 561.761 50.98C567.415 47.8707 573.987 46.316 581.477 46.316C590.452 46.316 598.331 48.6833 605.115 53.418C606.317 54.266 607.165 55.1847 607.659 56.174C608.225 57.1633 608.507 58.4353 608.507 59.99C608.507 62.1807 607.871 64.0533 606.599 65.608C605.398 67.092 603.914 67.834 602.147 67.834C601.087 67.834 600.133 67.6927 599.285 67.41C598.437 67.0567 597.448 66.5267 596.317 65.82C593.844 64.336 591.512 63.276 589.321 62.64C587.131 62.004 584.869 61.686 582.537 61.686C576.248 61.686 571.549 63.594 568.439 67.41C565.401 71.1553 563.881 76.8793 563.881 84.582C563.881 92.3553 565.401 98.15 568.439 101.966C571.549 105.711 576.248 107.584 582.537 107.584C584.657 107.584 586.707 107.266 588.685 106.63C590.664 105.923 593.208 104.863 596.317 103.45C597.801 102.673 598.897 102.143 599.603 101.86C600.31 101.577 601.158 101.436 602.147 101.436C603.914 101.436 605.398 102.213 606.599 103.768C607.871 105.252 608.507 107.089 608.507 109.28C608.507 110.764 608.225 112.036 607.659 113.096C607.165 114.085 606.317 115.004 605.115 115.852C598.331 120.587 590.452 122.954 581.477 122.954ZM648.587 122.954C640.955 122.954 634.312 121.399 628.659 118.29C623.076 115.11 618.766 110.658 615.727 104.934C612.688 99.1393 611.169 92.3553 611.169 84.582C611.169 76.8087 612.688 70.06 615.727 64.336C618.766 58.5413 623.076 54.0893 628.659 50.98C634.312 47.8707 640.955 46.316 648.587 46.316C656.219 46.316 662.826 47.8707 668.409 50.98C674.062 54.0893 678.373 58.5413 681.341 64.336C684.38 70.06 685.899 76.8087 685.899 84.582C685.899 92.3553 684.38 99.1393 681.341 104.934C678.302 110.658 673.956 115.11 668.303 118.29C662.72 121.399 656.148 122.954 648.587 122.954ZM648.587 108.008C654.24 108.008 658.657 106.029 661.837 102.072C665.017 98.044 666.607 92.214 666.607 84.582C666.607 76.95 664.982 71.1553 661.731 67.198C658.551 63.2407 654.17 61.262 648.587 61.262C642.934 61.262 638.517 63.2407 635.337 67.198C632.157 71.0847 630.567 76.8793 630.567 84.582C630.567 92.2847 632.157 98.1147 635.337 102.072C638.517 106.029 642.934 108.008 648.587 108.008ZM751.714 46.74C754.4 46.74 756.59 47.6233 758.286 49.39C760.053 51.1567 760.936 53.4533 760.936 56.28V112.99C760.936 115.887 760.088 118.219 758.392 119.986C756.696 121.753 754.506 122.636 751.82 122.636C748.64 122.636 746.238 121.576 744.612 119.456L712.388 79.282V112.99C712.388 115.887 711.576 118.219 709.95 119.986C708.325 121.753 706.134 122.636 703.378 122.636C700.693 122.636 698.502 121.753 696.806 119.986C695.11 118.219 694.262 115.887 694.262 112.99V56.28C694.262 53.4533 695.11 51.1567 696.806 49.39C698.502 47.6233 700.693 46.74 703.378 46.74C706.417 46.74 708.784 47.8 710.48 49.92L742.704 89.988V56.28C742.704 53.3827 743.517 51.086 745.142 49.39C746.838 47.6233 749.029 46.74 751.714 46.74ZM780.317 122C777.42 122 775.194 121.223 773.639 119.668C772.084 118.113 771.307 115.887 771.307 112.99V56.28C771.307 53.3827 772.084 51.1567 773.639 49.602C775.194 48.0473 777.42 47.27 780.317 47.27H801.729C809.997 47.27 817.099 48.7893 823.035 51.828C829.042 54.796 833.635 59.0713 836.815 64.654C839.995 70.2367 841.585 76.8793 841.585 84.582C841.585 92.3553 839.995 99.0687 836.815 104.722C833.706 110.305 829.148 114.58 823.141 117.548C817.205 120.516 810.068 122 801.729 122H780.317ZM800.351 106.312C807.63 106.312 813.071 104.545 816.675 101.012C820.35 97.408 822.187 91.9313 822.187 84.582C822.187 77.2327 820.35 71.7913 816.675 68.258C813.071 64.7247 807.63 62.958 800.351 62.958H790.811V106.312H800.351ZM878.201 122.954C872.548 122.954 867.283 122.353 862.407 121.152C857.602 119.88 853.645 118.149 850.535 115.958C849.334 115.039 848.451 114.085 847.885 113.096C847.391 112.107 847.143 110.835 847.143 109.28C847.143 107.16 847.779 105.323 849.051 103.768C850.323 102.213 851.807 101.436 853.503 101.436C854.422 101.436 855.305 101.577 856.153 101.86C857.001 102.143 858.061 102.673 859.333 103.45C862.231 105.075 865.093 106.241 867.919 106.948C870.817 107.655 874.067 108.008 877.671 108.008C881.841 108.008 884.985 107.407 887.105 106.206C889.296 104.934 890.391 103.097 890.391 100.694C890.391 99.0687 889.367 97.6907 887.317 96.56C885.339 95.3587 881.523 94.1927 875.869 93.062C868.873 91.578 863.397 89.8113 859.439 87.762C855.482 85.7127 852.691 83.31 851.065 80.554C849.511 77.7273 848.733 74.3353 848.733 70.378C848.733 65.8553 850.076 61.7567 852.761 58.082C855.447 54.4073 859.121 51.5453 863.785 49.496C868.52 47.376 873.82 46.316 879.685 46.316C884.844 46.316 889.437 46.8813 893.465 48.012C897.493 49.1427 901.168 50.9093 904.489 53.312C905.761 54.2307 906.645 55.22 907.139 56.28C907.705 57.2693 907.987 58.506 907.987 59.99C907.987 62.11 907.351 63.9473 906.079 65.502C904.878 67.0567 903.429 67.834 901.733 67.834C900.815 67.834 899.967 67.728 899.189 67.516C898.412 67.2333 897.317 66.668 895.903 65.82C895.55 65.608 894.525 65.078 892.829 64.23C891.204 63.3113 889.261 62.6047 886.999 62.11C884.809 61.5447 882.406 61.262 879.791 61.262C876.187 61.262 873.29 61.9687 871.099 63.382C868.909 64.7247 867.813 66.5267 867.813 68.788C867.813 70.1307 868.202 71.226 868.979 72.074C869.757 72.922 871.205 73.77 873.325 74.618C875.445 75.3953 878.59 76.208 882.759 77.056C889.543 78.54 894.879 80.342 898.765 82.462C902.652 84.5113 905.408 86.914 907.033 89.67C908.659 92.426 909.471 95.6767 909.471 99.422C909.471 104.086 908.164 108.22 905.549 111.824C902.935 115.357 899.26 118.113 894.525 120.092C889.861 122 884.42 122.954 878.201 122.954Z" fill="black"/>
<path d="M296.319 201.729C290.487 201.729 285.411 200.541 281.091 198.165C276.825 195.735 273.531 192.333 271.209 187.959C268.887 183.531 267.726 178.347 267.726 172.407C267.726 166.467 268.887 161.31 271.209 156.936C273.531 152.508 276.825 149.106 281.091 146.73C285.411 144.354 290.487 143.166 296.319 143.166C302.151 143.166 307.2 144.354 311.466 146.73C315.786 149.106 319.08 152.508 321.348 156.936C323.67 161.31 324.831 166.467 324.831 172.407C324.831 178.347 323.67 183.531 321.348 187.959C319.026 192.333 315.705 195.735 311.385 198.165C307.119 200.541 302.097 201.729 296.319 201.729ZM296.319 190.308C300.639 190.308 304.014 188.796 306.444 185.772C308.874 182.694 310.089 178.239 310.089 172.407C310.089 166.575 308.847 162.147 306.363 159.123C303.933 156.099 300.585 154.587 296.319 154.587C291.999 154.587 288.624 156.099 286.194 159.123C283.764 162.093 282.549 166.521 282.549 172.407C282.549 178.293 283.764 182.748 286.194 185.772C288.624 188.796 291.999 190.308 296.319 190.308ZM338.593 201.486C336.379 201.486 334.597 200.811 333.247 199.461C331.897 198.111 331.222 196.329 331.222 194.115V150.78C331.222 148.566 331.816 146.865 333.004 145.677C334.192 144.489 335.893 143.895 338.107 143.895H365.323C367.753 143.895 369.535 144.381 370.669 145.353C371.803 146.271 372.37 147.756 372.37 149.808C372.37 151.806 371.776 153.264 370.588 154.182C369.454 155.1 367.699 155.559 365.323 155.559H345.883V166.089H363.703C366.079 166.089 367.834 166.575 368.968 167.547C370.156 168.519 370.75 170.004 370.75 172.002C370.75 174 370.156 175.458 368.968 176.376C367.834 177.294 366.079 177.753 363.703 177.753H345.883V194.115C345.883 196.383 345.208 198.192 343.858 199.542C342.562 200.838 340.807 201.486 338.593 201.486ZM444.562 189.822C445.966 191.172 446.668 192.738 446.668 194.52C446.668 196.302 445.993 197.868 444.643 199.218C443.293 200.568 441.7 201.243 439.864 201.243C437.866 201.243 436.03 200.379 434.356 198.651L411.271 174.999V194.115C411.271 196.383 410.596 198.192 409.246 199.542C407.896 200.838 406.06 201.486 403.738 201.486C401.47 201.486 399.661 200.838 398.311 199.542C397.015 198.192 396.367 196.383 396.367 194.115V150.78C396.367 148.566 397.015 146.811 398.311 145.515C399.661 144.165 401.47 143.49 403.738 143.49C406.06 143.49 407.896 144.165 409.246 145.515C410.596 146.811 411.271 148.566 411.271 150.78V168.6L434.032 145.677C435.436 144.219 437.029 143.49 438.811 143.49C440.593 143.49 442.159 144.165 443.509 145.515C444.859 146.811 445.534 148.35 445.534 150.132C445.534 151.914 444.751 153.561 443.185 155.073L426.58 171.354L444.562 189.822ZM494.396 143.49C496.448 143.49 498.122 144.165 499.418 145.515C500.768 146.865 501.443 148.62 501.443 150.78V194.115C501.443 196.329 500.795 198.111 499.499 199.461C498.203 200.811 496.529 201.486 494.477 201.486C492.047 201.486 490.211 200.676 488.969 199.056L464.345 168.357V194.115C464.345 196.329 463.724 198.111 462.482 199.461C461.24 200.811 459.566 201.486 457.46 201.486C455.408 201.486 453.734 200.811 452.438 199.461C451.142 198.111 450.494 196.329 450.494 194.115V150.78C450.494 148.62 451.142 146.865 452.438 145.515C453.734 144.165 455.408 143.49 457.46 143.49C459.782 143.49 461.591 144.3 462.887 145.92L487.511 176.538V150.78C487.511 148.566 488.132 146.811 489.374 145.515C490.67 144.165 492.344 143.49 494.396 143.49ZM536.503 201.729C530.671 201.729 525.595 200.541 521.275 198.165C517.009 195.735 513.715 192.333 511.393 187.959C509.071 183.531 507.91 178.347 507.91 172.407C507.91 166.467 509.071 161.31 511.393 156.936C513.715 152.508 517.009 149.106 521.275 146.73C525.595 144.354 530.671 143.166 536.503 143.166C542.335 143.166 547.384 144.354 551.65 146.73C555.97 149.106 559.264 152.508 561.532 156.936C563.854 161.31 565.015 166.467 565.015 172.407C565.015 178.347 563.854 183.531 561.532 187.959C559.21 192.333 555.889 195.735 551.569 198.165C547.303 200.541 542.281 201.729 536.503 201.729ZM536.503 190.308C540.823 190.308 544.198 188.796 546.628 185.772C549.058 182.694 550.273 178.239 550.273 172.407C550.273 166.575 549.031 162.147 546.547 159.123C544.117 156.099 540.769 154.587 536.503 154.587C532.183 154.587 528.808 156.099 526.378 159.123C523.948 162.093 522.733 166.521 522.733 172.407C522.733 178.293 523.948 182.748 526.378 185.772C528.808 188.796 532.183 190.308 536.503 190.308ZM639.569 148.026C640.109 146.514 640.973 145.353 642.161 144.543C643.403 143.733 644.753 143.328 646.211 143.328C647.993 143.328 649.532 143.895 650.828 145.029C652.178 146.163 652.853 147.702 652.853 149.646C652.853 150.51 652.637 151.59 652.205 152.886L635.924 196.95C635.384 198.462 634.385 199.65 632.927 200.514C631.523 201.324 629.957 201.729 628.229 201.729C626.501 201.729 624.935 201.324 623.531 200.514C622.127 199.65 621.155 198.462 620.615 196.95L610.085 166.899L599.069 196.95C598.475 198.462 597.476 199.65 596.072 200.514C594.668 201.324 593.129 201.729 591.455 201.729C589.727 201.729 588.161 201.324 586.757 200.514C585.353 199.65 584.381 198.462 583.841 196.95L567.479 152.886C567.101 151.806 566.912 150.78 566.912 149.808C566.912 147.81 567.614 146.244 569.018 145.11C570.476 143.922 572.15 143.328 574.04 143.328C575.552 143.328 576.929 143.733 578.171 144.543C579.467 145.299 580.385 146.46 580.925 148.026L592.022 179.94L603.767 148.026C604.307 146.514 605.171 145.353 606.359 144.543C607.601 143.733 608.951 143.328 610.409 143.328C611.867 143.328 613.19 143.733 614.378 144.543C615.566 145.353 616.43 146.541 616.97 148.107L627.986 180.669L639.569 148.026ZM664.929 201C662.715 201 661.014 200.406 659.826 199.218C658.638 198.03 658.044 196.302 658.044 194.034V150.78C658.044 148.566 658.692 146.811 659.988 145.515C661.338 144.165 663.147 143.49 665.415 143.49C667.737 143.49 669.573 144.165 670.923 145.515C672.273 146.811 672.948 148.566 672.948 150.78V188.931H691.578C696.276 188.931 698.625 190.956 698.625 195.006C698.625 197.058 698.031 198.57 696.843 199.542C695.709 200.514 693.954 201 691.578 201H664.929ZM708.853 201C706.639 201 704.938 200.406 703.75 199.218C702.562 198.03 701.968 196.329 701.968 194.115V150.78C701.968 148.566 702.562 146.865 703.75 145.677C704.938 144.489 706.639 143.895 708.853 143.895H736.879C739.201 143.895 740.956 144.381 742.144 145.353C743.332 146.325 743.926 147.729 743.926 149.565C743.926 153.453 741.577 155.397 736.879 155.397H716.467V166.251H735.259C739.957 166.251 742.306 168.168 742.306 172.002C742.306 173.838 741.712 175.242 740.524 176.214C739.336 177.186 737.581 177.672 735.259 177.672H716.467V189.498H736.879C741.577 189.498 743.926 191.442 743.926 195.33C743.926 197.166 743.332 198.57 742.144 199.542C740.956 200.514 739.201 201 736.879 201H708.853ZM754.754 201C752.54 201 750.839 200.406 749.651 199.218C748.463 198.03 747.869 196.329 747.869 194.115V150.78C747.869 148.566 748.463 146.865 749.651 145.677C750.839 144.489 752.54 143.895 754.754 143.895H771.116C777.434 143.895 782.861 145.056 787.397 147.378C791.987 149.646 795.497 152.913 797.927 157.179C800.357 161.445 801.572 166.521 801.572 172.407C801.572 178.347 800.357 183.477 797.927 187.797C795.551 192.063 792.068 195.33 787.478 197.598C782.942 199.866 777.488 201 771.116 201H754.754ZM770.063 189.012C775.625 189.012 779.783 187.662 782.537 184.962C785.345 182.208 786.749 178.023 786.749 172.407C786.749 166.791 785.345 162.633 782.537 159.933C779.783 157.233 775.625 155.883 770.063 155.883H762.773V189.012H770.063ZM852.799 168.762C854.581 168.762 855.985 169.275 857.011 170.301C858.091 171.273 858.631 172.596 858.631 174.27V188.364C858.631 191.064 858.415 193.143 857.983 194.601C857.605 196.005 856.876 197.112 855.796 197.922C854.77 198.732 853.204 199.434 851.098 200.028C848.992 200.568 846.643 200.973 844.051 201.243C841.513 201.567 839.137 201.729 836.923 201.729C830.713 201.729 825.313 200.568 820.723 198.246C816.187 195.87 812.704 192.495 810.274 188.121C807.844 183.693 806.629 178.455 806.629 172.407C806.629 166.467 807.844 161.31 810.274 156.936C812.704 152.508 816.16 149.106 820.642 146.73C825.124 144.354 830.362 143.166 836.356 143.166C840.136 143.166 843.511 143.625 846.481 144.543C849.505 145.407 852.313 146.757 854.905 148.593C855.823 149.241 856.471 149.943 856.849 150.699C857.281 151.455 857.497 152.427 857.497 153.615C857.497 155.289 857.038 156.72 856.12 157.908C855.202 159.042 854.095 159.609 852.799 159.609C851.935 159.609 851.179 159.501 850.531 159.285C849.937 159.015 849.154 158.583 848.182 157.989C846.184 156.909 844.294 156.126 842.512 155.64C840.784 155.154 838.894 154.911 836.842 154.911C831.712 154.911 827.878 156.342 825.34 159.204C822.856 162.066 821.614 166.467 821.614 172.407C821.614 178.509 822.91 183.045 825.502 186.015C828.148 188.931 832.171 190.389 837.571 190.389C840.163 190.389 842.728 190.119 845.266 189.579V178.968H839.434C837.652 178.968 836.275 178.536 835.303 177.672C834.331 176.754 833.845 175.485 833.845 173.865C833.845 172.245 834.331 171.003 835.303 170.139C836.275 169.221 837.652 168.762 839.434 168.762H852.799ZM872.818 201C870.604 201 868.903 200.406 867.715 199.218C866.527 198.03 865.933 196.329 865.933 194.115V150.78C865.933 148.566 866.527 146.865 867.715 145.677C868.903 144.489 870.604 143.895 872.818 143.895H900.844C903.166 143.895 904.921 144.381 906.109 145.353C907.297 146.325 907.891 147.729 907.891 149.565C907.891 153.453 905.542 155.397 900.844 155.397H880.432V166.251H899.224C903.922 166.251 906.271 168.168 906.271 172.002C906.271 173.838 905.677 175.242 904.489 176.214C903.301 177.186 901.546 177.672 899.224 177.672H880.432V189.498H900.844C905.542 189.498 907.891 191.442 907.891 195.33C907.891 197.166 907.297 198.57 906.109 199.542C904.921 200.514 903.166 201 900.844 201H872.818Z" fill="black"/>
</svg>
