<svg height="480pt" viewBox="0 0 480 480" width="480pt" xmlns="http://www.w3.org/2000/svg" xmlns:xlink="http://www.w3.org/1999/xlink"><linearGradient id="a"><stop offset="0" stop-color="#e93e3a"/><stop offset=".36" stop-color="#ed683c"/><stop offset=".716" stop-color="#f3903f"/><stop offset="1" stop-color="#fdc70c"/></linearGradient><linearGradient id="b" gradientUnits="userSpaceOnUse" x1="236.16" x2="243.456" xlink:href="#a" y1="483.576" y2="-9.432"/><linearGradient id="c" gradientUnits="userSpaceOnUse" x1="429.896" x2="437.184" xlink:href="#a" y1="486.44" y2="-6.568"/><linearGradient id="d" gradientUnits="userSpaceOnUse" x1="97.352" x2="104.64" xlink:href="#a" y1="481.52" y2="-11.48"/><linearGradient id="e" gradientUnits="userSpaceOnUse" x1="129.344" x2="136.64" xlink:href="#a" y1="482" y2="-11.008"/><linearGradient id="f" gradientUnits="userSpaceOnUse" x1="161.336" x2="168.632" xlink:href="#a" y1="482.472" y2="-10.536"/><linearGradient id="g" gradientUnits="userSpaceOnUse" x1="173.6" x2="180.888" xlink:href="#a" y1="482.648" y2="-10.352"/><linearGradient id="h" gradientUnits="userSpaceOnUse" x1="295.648" x2="302.936" xlink:href="#a" y1="484.456" y2="-8.552"/><linearGradient id="i" gradientUnits="userSpaceOnUse" x1="234.624897" x2="241.912897" xlink:href="#a" y1="483.554164" y2="-9.453836"/><linearGradient id="j" gradientUnits="userSpaceOnUse" x1="147.584" x2="154.88" xlink:href="#a" y1="482.264" y2="-10.744"/><linearGradient id="k" gradientUnits="userSpaceOnUse" x1="195.576" x2="202.872" xlink:href="#a" y1="482.976" y2="-10.032"/><linearGradient id="l" gradientUnits="userSpaceOnUse" x1="172.056" x2="179.352" xlink:href="#a" y1="482.632" y2="-10.376"/><linearGradient id="m" gradientUnits="userSpaceOnUse" x1="220.048" x2="227.336" xlink:href="#a" y1="483.336" y2="-9.672"/><linearGradient id="n" gradientUnits="userSpaceOnUse" x1="172.528" x2="179.824" xlink:href="#a" y1="482.632" y2="-10.368"/><path d="m440 64h-24v-40c0-13.253906-10.746094-24-24-24h-304c-13.253906 0-24 10.746094-24 24v40h-24c-22.082031.027344-39.9726562 17.917969-40 40v240c.0273438 22.082031 17.917969 39.972656 40 40h134.9375l-6 48h-8.9375c-8.835938 0-16 7.164062-16 16v16h-16v16h224v-16h-16v-16c0-8.835938-7.164062-16-16-16h-8.9375l-6-48h134.9375c22.082031-.027344 39.972656-17.917969 40-40v-240c-.027344-22.082031-17.917969-39.972656-40-40zm-360 0h320v200c0 4.417969-3.582031 8-8 8h-304c-4.417969 0-8-3.582031-8-8zm8-48h304c4.417969 0 8 3.582031 8 8v24h-320v-24c0-4.417969 3.582031-8 8-8zm-48 64h24v184c0 13.253906 10.746094 24 24 24h304c13.253906 0 24-10.746094 24-24v-184h24c13.253906 0 24 10.746094 24 24v200h-448v-200c0-13.253906 10.746094-24 24-24zm280 384h-160v-16h160zm-25.0625-32h-109.875l6-48h97.875zm145.0625-64h-400c-13.253906 0-24-10.746094-24-24v-24h448v24c0 13.253906-10.746094 24-24 24zm0 0" fill="url(#b)"/><path d="m424 336h16v16h-16zm0 0" fill="url(#c)"/><path d="m96 24h16v16h-16zm0 0" fill="url(#d)"/><path d="m128 24h16v16h-16zm0 0" fill="url(#e)"/><path d="m160 24h16v16h-16zm0 0" fill="url(#f)"/><path d="m186.34375 149.65625 11.3125-11.3125-18.34375-18.34375 18.34375-18.34375-11.3125-11.3125-24 24c-3.121094 3.125-3.121094 8.1875 0 11.3125zm0 0" fill="url(#g)"/><path d="m293.65625 149.65625 24-24c3.121094-3.125 3.121094-8.1875 0-11.3125l-24-24-11.3125 11.3125 18.34375 18.34375-18.34375 18.34375zm0 0" fill="url(#h)"/><path d="m216.566406 157.027344 32.007813-79.996094 14.863281 5.945312-32.007812 79.996094zm0 0" fill="url(#i)"/><path d="m144 176h16v16h-16zm0 0" fill="url(#j)"/><path d="m176 176h48v16h-48zm0 0" fill="url(#k)"/><path d="m160 208h32v16h-32zm0 0" fill="url(#l)"/><path d="m208 208h32v16h-32zm0 0" fill="url(#m)"/><path d="m128 240h96v16h-96zm0 0" fill="url(#n)"/></svg>