<svg height="480pt" viewBox="0 0 480 480" width="480pt" xmlns="http://www.w3.org/2000/svg" xmlns:xlink="http://www.w3.org/1999/xlink"><linearGradient id="a"><stop offset="0" stop-color="#006df0"/><stop offset="1" stop-color="#00e7f0"/></linearGradient><linearGradient id="b" gradientUnits="userSpaceOnUse" x1="217.512" x2="209.888" xlink:href="#a" y1="503.736" y2="-16.944"/><linearGradient id="c" gradientUnits="userSpaceOnUse" x1="244.384" x2="236.76" xlink:href="#a" y1="503.344" y2="-17.344"/><linearGradient id="d" gradientUnits="userSpaceOnUse" x1="317.136" x2="309.504" xlink:href="#a" y1="502.28" y2="-18.408"/><linearGradient id="e" gradientUnits="userSpaceOnUse" x1="373.12" x2="365.488" xlink:href="#a" y1="501.456" y2="-19.224"/><path d="m256 432c-39.746094-.042969-71.957031-32.253906-72-72 0-4.417969-3.582031-8-8-8s-8 3.582031-8 8c.058594 48.578125 39.421875 87.941406 88 88 4.417969 0 8-3.582031 8-8s-3.582031-8-8-8zm0 0" fill="url(#b)"/><path d="m400 272h-8v-8c0-4.417969-3.582031-8-8-8h-168v-16h8c4.417969 0 8-3.582031 8-8v-32c0-4.417969-3.582031-8-8-8h-48v-16c39.746094-.042969 71.957031-32.253906 72-72v-8c0-13.253906-10.746094-24-24-24s-24 10.746094-24 24v8c0 13.253906-10.746094 24-24 24v-72c-.035156-30.914062-25.085938-55.9648438-56-56-30.914062.0351562-55.964844 25.085938-56 56v22.527344c-9.554688-3.378906-15.957031-12.394532-16-22.527344v-8c0-13.253906-10.746094-24-24-24-13.226562.066406-23.9335938 10.773438-24 24v8c.0507812 36.644531 27.585938 67.421875 64 71.527344v64.472656h-48c-4.417969 0-8 3.582031-8 8v32c0 4.417969 3.582031 8 8 8h8v72c.035156 30.914062 25.085938 55.964844 56 56h56.40625c4.234375 62.960938 56.488281 111.898438 119.59375 112h16c37.699219-.035156 73.183594-17.820312 95.777344-48h32.222656c44.15625-.0625 79.9375-35.84375 80-80-.046875-44.164062-35.835938-79.953125-80-80zm-8 40h8c22.089844 0 40 17.910156 40 40s-17.910156 40-40 40h-12.464844c2.933594-10.414062 4.433594-21.179688 4.464844-32zm-176-208v-8c0-4.417969 3.582031-8 8-8s8 3.582031 8 8v8c-.035156 30.914062-25.085938 55.964844-56 56h-40v-16h40c22.082031-.027344 39.972656-17.917969 40-40zm-200-48v-8c-.003906-2.15625.878906-4.222656 2.449219-5.703125 1.464843-1.484375 3.464843-2.3125 5.550781-2.296875 4.417969 0 8 3.582031 8 8v8c.023438 19 13.386719 35.371094 32 39.199219v16.160156c-27.527344-3.972656-47.96875-27.546875-48-55.359375zm64 0c.027344-22.082031 17.917969-39.972656 40-40 22.074219.039062 39.960938 17.925781 40 40v72h-32c-4.417969 0-8 3.582031-8 8v32c0 4.417969 3.582031 8 8 8h32v16h-80zm-56 152h192v16h-192zm16 104v-72h160v16h-56c-4.417969 0-8 3.582031-8 8v88h-56c-22.082031-.027344-39.972656-17.917969-40-40zm232 152h-16c-57.410156-.066406-103.933594-46.589844-104-104v-88h224v88c-.066406 57.410156-46.589844 103.933594-104 104zm173.199219-66.761719c-11.9375 12.066407-28.226563 18.828125-45.199219 18.761719h-21.953125c1.386719-2.609375 2.675781-5.273438 3.863281-8h18.089844c30.929688 0 56-25.070312 56-56s-25.070312-56-56-56h-8v-8h8c35.328125.039062 63.960938 28.671875 64 64 .0625 16.992188-6.714844 33.296875-18.800781 45.238281zm0 0" fill="url(#c)"/><path d="m306.878906 199.199219c-8.40625 7-18.878906 15.722656-18.878906 32.800781 0 4.417969 3.582031 8 8 8s8-3.582031 8-8c0-9.136719 4.742188-13.527344 13.121094-20.503906 8.375-6.976563 18.878906-15.726563 18.878906-32.808594 0-17.078125-10.472656-25.808594-18.878906-32.800781-8.410156-6.992188-13.121094-11.398438-13.121094-20.542969s4.742188-13.535156 13.121094-20.519531c8.375-6.984375 18.878906-15.734375 18.878906-32.824219 0-4.417969-3.582031-8-8-8s-8 3.582031-8 8c0 9.144531-4.742188 13.535156-13.121094 20.519531-8.375 6.984375-18.878906 15.738281-18.878906 32.824219 0 17.089844 10.472656 25.808594 18.878906 32.800781 8.410156 6.992188 13.121094 11.398438 13.121094 20.542969s-4.742188 13.527344-13.121094 20.511719zm0 0" fill="url(#d)"/><path d="m362.878906 199.199219c-8.40625 7-18.878906 15.722656-18.878906 32.800781 0 4.417969 3.582031 8 8 8s8-3.582031 8-8c0-9.136719 4.742188-13.527344 13.121094-20.503906 8.375-6.976563 18.878906-15.726563 18.878906-32.808594 0-17.078125-10.472656-25.808594-18.878906-32.800781-8.410156-6.992188-13.121094-11.398438-13.121094-20.542969s4.742188-13.535156 13.121094-20.519531c8.375-6.984375 18.878906-15.734375 18.878906-32.824219 0-4.417969-3.582031-8-8-8s-8 3.582031-8 8c0 9.144531-4.742188 13.535156-13.121094 20.519531-8.375 6.984375-18.878906 15.738281-18.878906 32.824219 0 17.089844 10.472656 25.808594 18.878906 32.800781 8.410156 6.992188 13.121094 11.398438 13.121094 20.542969s-4.742188 13.527344-13.121094 20.511719zm0 0" fill="url(#e)"/></svg>