<?xml version="1.0" encoding="utf-8"?>
<!-- Generator: Adobe Illustrator 23.0.1, SVG Export Plug-In . SVG Version: 6.00 Build 0)  -->
<svg version="1.1" id="Capa_1" xmlns="http://www.w3.org/2000/svg" xmlns:xlink="http://www.w3.org/1999/xlink" x="0px" y="0px"
	 viewBox="0 0 294.8 294.8" style="enable-background:new 0 0 294.8 294.8;" xml:space="preserve">
<style type="text/css">
	.st0{fill:url(#SVGID_1_);}
	.st1{fill:url(#SVGID_2_);}
</style>
<g>
	
		<linearGradient id="SVGID_1_" gradientUnits="userSpaceOnUse" x1="64.8145" y1="148.5875" x2="230.1771" y2="148.5875" gradientTransform="matrix(1 0 0 -1 0 296)">
		<stop  offset="0" style="stop-color:#F60400"/>
		<stop  offset="2.100000e-02" style="stop-color:#FF2300"/>
		<stop  offset="0.293" style="stop-color:#FF4100"/>
		<stop  offset="0.554" style="stop-color:#FF732A"/>
		<stop  offset="0.796" style="stop-color:#FF953E"/>
		<stop  offset="1" style="stop-color:#FF9F42"/>
	</linearGradient>
	<path class="st0" d="M191.3,171c-0.5-1.7,0.1-3.4,1.4-4.5l31.5-23.1c5-3.7,7-9.8,5-15.8c-1.9-5.9-7.2-9.8-13.4-9.8l-39-0.2
		c-1.8,0-3.3-1.1-3.9-2.8l-12.2-37.1c-1.9-5.9-7.2-9.7-13.5-9.8l0,0c-6.2,0-11.5,3.8-13.5,9.7l-5.6,16.7c-0.8,2.6,0.6,5.5,3.2,6.4
		c2.6,0.8,5.5-0.6,6.4-3.2l5.6-16.7c0.8-2.6,3.2-2.8,3.9-2.8s3,0.2,3.9,2.8l12.2,37.1c1.9,5.8,7.3,9.7,13.4,9.8l39,0.2
		c2.7,0,3.6,2.2,3.9,2.8c0.3,0.7,0.8,2.9-1.4,4.5l-31.5,23.1c-4.9,3.6-7,9.9-5.1,15.7l11.9,37.2c0.8,2.6-0.9,4.1-1.5,4.5
		c-0.6,0.4-2.5,1.6-4.8,0L155.5,193c-5-3.5-11.6-3.5-16.6,0l-31.7,22.8c-2.2,1.6-4.2,0.4-4.8,0c-0.6-0.4-2.3-1.9-1.5-4.5l11.9-37.2
		c1.9-5.8-0.2-12.1-5.1-15.7l-31.1-23.1c-2.2-1.6-1.7-3.9-1.4-4.5c0.3-0.7,1.1-2.8,3.9-2.8l39-0.2c2.8,0,5-2.3,5-5s-2.3-5-5-5l0,0
		l-39,0.2c-6.2,0-11.4,3.9-13.4,9.8c-1.9,5.9,0.1,12.1,5,15.8l31.5,23.1c1.4,1,2,2.9,1.4,4.5l-11.9,37.2c-1.9,5.9,0.2,12.1,5.1,15.7
		c2.5,1.9,5.4,2.8,8.3,2.8c2.9,0,5.7-0.9,8.2-2.7l31.7-22.8c1.4-1,3.3-1,4.7,0l31.7,22.8c5,3.6,11.5,3.6,16.6,0
		c5-3.6,7.1-9.8,5.1-15.7L191.3,171z"/>
	
		<linearGradient id="SVGID_2_" gradientUnits="userSpaceOnUse" x1="0.1004" y1="148.6001" x2="294.8" y2="148.6001" gradientTransform="matrix(1 0 0 -1 0 296)">
		<stop  offset="0" style="stop-color:#F60400"/>
		<stop  offset="2.100000e-02" style="stop-color:#FF2300"/>
		<stop  offset="0.293" style="stop-color:#FF4100"/>
		<stop  offset="0.554" style="stop-color:#FF732A"/>
		<stop  offset="0.796" style="stop-color:#FF953E"/>
		<stop  offset="1" style="stop-color:#FF9F42"/>
	</linearGradient>
	<path class="st1" d="M147.4,294.7c-81.2,0-147.3-66.1-147.3-147.3C0.1,66.2,66.2,0.1,147.4,0.1c81.2,0,147.3,66.1,147.4,147.3
		c0,50.5-25.5,96.9-68.1,124.2c-1.6,1-3.4,1.5-5.3,1.5h0c-3.3,0-6.4-1.7-8.2-4.5c-2.9-4.5-1.6-10.6,2.9-13.5
		c37-23.6,59.1-63.9,59.1-107.8c0-70.5-57.3-127.8-127.8-127.8c-70.5,0-127.8,57.3-127.8,127.8c0,70.5,57.3,127.8,127.8,127.8
		c5.4,0,9.7,4.4,9.7,9.7C157.1,290.3,152.8,294.7,147.4,294.7z"/>
</g>
</svg>
