<?xml version="1.0" encoding="utf-8"?>
<!-- Generator: Adobe Illustrator 23.0.1, SVG Export Plug-In . SVG Version: 6.00 Build 0)  -->
<svg version="1.1" id="Capa_1" xmlns="http://www.w3.org/2000/svg" xmlns:xlink="http://www.w3.org/1999/xlink" x="0px" y="0px"
	 viewBox="0 0 490.7 490.7" style="enable-background:new 0 0 490.7 490.7;" xml:space="preserve">
<style type="text/css">
	.st0{fill:url(#SVGID_1_);}
</style>
<g>
	<linearGradient id="SVGID_1_" gradientUnits="userSpaceOnUse" x1="6.7358" y1="245.3638" x2="484" y2="245.3638">
		<stop  offset="0" style="stop-color:#F60400"/>
		<stop  offset="2.100000e-02" style="stop-color:#FF2300"/>
		<stop  offset="0.293" style="stop-color:#FF4100"/>
		<stop  offset="0.554" style="stop-color:#FF732A"/>
		<stop  offset="0.796" style="stop-color:#FF953E"/>
		<stop  offset="1" style="stop-color:#FF9F42"/>
	</linearGradient>
	<path class="st0" d="M365.5,472.8c-7.9,0-15.7-2.4-22.5-6.9l-97.6-60c-0.4-0.2-0.8-0.4-1.3-0.4c-0.5,0-0.9,0.1-1.3,0.4L146.2,466
		c-6.5,4.3-14.4,6.7-22.3,6.7c-12.9,0-25.3-6.2-33.2-16.5C83,446,80.6,432.9,84,420.3L111,310c0.2-0.9-0.1-1.9-0.9-2.5l-88.5-73.1
		C8.2,222.9,3.4,205.5,9.1,188.8c5.6-16.4,20.2-27.6,37.2-28.5l114.3-8.2c0.9-0.1,1.7-0.7,2.1-1.6l43.7-106.2
		c6.7-16.2,21.7-26.2,39-26.2c17.5,0,32.4,10,39,26.1l43.7,106.3c0.3,0.8,1.1,1.4,2.1,1.5l114.5,8.2c16.9,1,31.5,12.2,36.9,28.6
		c5.6,16.7,0.8,34.1-12.4,45.5L435.2,262l-23.8-20.7l38.1-31.1c4.3-3.8,3.8-8.8,3-11.5c-0.8-2.2-3.2-7-9.5-7.4L328.1,183
		c-12.8-1-23.8-8.9-28.6-20.7L255.8,56c-2.6-6.2-8-6.9-10.2-6.9c-2.2,0-7.7,0.7-10.2,6.9l-43.7,106.3c-4.8,11.8-15.8,19.8-28.6,20.7
		l-114.6,8.2c-6.6,0.3-9,5.4-9.8,7.5c-0.6,1.6-2,7.3,3.2,11.8l88.3,73c9.8,8.1,14.3,21.4,11.2,33.8l-27.1,111
		c-1,3.5-0.6,6.6,1.4,9.2c2,2.6,5.2,4.2,8.4,4.2c1.9,0,3.8-0.6,5.4-1.6l97.2-60.4c5.2-3.3,11.4-5.1,17.7-5.1c6.2,0,12.3,1.7,17.6,5
		l98.2,60.3l0.1,0c1.9,1.3,3.7,1.9,5.5,1.9c2.8,0,5.7-1.5,7.7-4c1.3-1.6,3.2-4.9,2.1-9.9l-27.1-110.4c-3.1-12.5,1.3-25.9,11.3-34
		l30.5-24.9l21.7,22.4l-32.6,26.6c-0.7,0.6-1,1.6-0.8,2.6l27.1,110.7c2.9,13.1,0,26.3-8.1,36.4C389.7,466.9,377.8,472.8,365.5,472.8
		z"/>
</g>
</svg>
