<?xml version="1.0" encoding="iso-8859-1"?>
<!-- Generator: Adobe Illustrator 19.0.0, SVG Export Plug-In . SVG Version: 6.00 Build 0)  -->
<svg version="1.1" id="Capa_1" xmlns="http://www.w3.org/2000/svg" xmlns:xlink="http://www.w3.org/1999/xlink" x="0px" y="0px"
	 viewBox="0 0 512 512" style="enable-background:new 0 0 512 512;" xml:space="preserve">
<linearGradient id="SVGID_1_" gradientUnits="userSpaceOnUse" x1="0" y1="258" x2="512" y2="258" gradientTransform="matrix(1 0 0 -1 0 514)">
	<stop  offset="0" style="stop-color:#f60400"/>
	<stop  offset="0.021" style="stop-color:#ff2300"/>
	<stop  offset="0.293" style="stop-color:#ff4100"/>
	<stop  offset="0.554" style="stop-color:#ff732a"/>
	<stop  offset="0.796" style="stop-color:#ff953e"/>
	<stop  offset="1" style="stop-color:#ff9f42"/>
</linearGradient>
<path style="fill:url(#SVGID_1_);" d="M256,372c-63.963,0-116-52.038-116-116s52.037-116,116-116s116,52.038,116,116
	c0,11.084-1.565,22.058-4.652,32.614c-3.102,10.602-14.207,16.683-24.811,13.582c-10.602-3.101-16.683-14.208-13.582-24.81
	C330.976,270.479,332,263.283,332,256c0-41.907-34.094-76-76-76s-76,34.093-76,76s34.094,76,76,76
	c7.847,0,15.573-1.186,22.965-3.526c10.529-3.333,21.771,2.502,25.103,13.033c3.333,10.531-2.501,21.77-13.032,25.103
	C279.735,370.187,267.947,372,256,372z M326,452v-10.074c0-2.649,1.668-5.05,4.229-6.107l0.391-0.162
	c2.594-1.076,5.481-0.562,7.354,1.311l7.122,7.122c11.332,11.333,26.399,17.574,42.427,17.574c16.026,0,31.094-6.241,42.427-17.574
	l14.142-14.142c11.332-11.333,17.573-26.4,17.573-42.426c0-16.027-6.241-31.094-17.573-42.426l-7.122-7.122
	c-1.874-1.874-2.389-4.761-1.312-7.355l0.151-0.366c1.067-2.583,3.469-4.252,6.118-4.252H452c33.084,0,60-26.916,60-60v-20
	c0-33.084-26.916-60-60-60h-10.073c-2.649,0-5.052-1.669-6.092-4.187l-0.178-0.432c-1.077-2.594-0.563-5.481,1.311-7.355
	l7.123-7.122c23.394-23.394,23.394-61.459,0-84.853L429.949,67.91c-11.333-11.333-26.4-17.574-42.427-17.574
	s-31.095,6.241-42.427,17.574l-7.121,7.121c-1.875,1.875-4.765,2.389-7.347,1.316l-0.377-0.156
	c-2.583-1.066-4.251-3.467-4.251-6.117V60c0-33.084-26.916-60-60-60h-20c-33.084,0-60,26.916-60,60v10.074
	c0,2.649-1.668,5.05-4.229,6.107l-0.391,0.162c-2.592,1.078-5.481,0.563-7.354-1.311l-7.122-7.122
	c-11.332-11.333-26.399-17.574-42.427-17.574c-16.026,0-31.094,6.241-42.427,17.574l-14.14,14.142
	c-23.394,23.394-23.394,61.459,0.001,84.854l7.121,7.121c1.874,1.875,2.389,4.762,1.281,7.43l-0.121,0.292
	c-1.066,2.583-3.469,4.252-6.118,4.252H60c-33.084,0-60,26.916-60,60v20c0,33.084,26.916,60,60,60h10.073
	c2.649,0,5.051,1.669,6.092,4.187l0.178,0.432c1.077,2.594,0.563,5.481-1.312,7.355l-7.121,7.122
	c-11.333,11.333-17.574,26.4-17.574,42.427c0,16.026,6.241,31.094,17.573,42.426l14.142,14.142
	c11.333,11.333,26.4,17.574,42.427,17.574s31.095-6.241,42.427-17.574l7.121-7.121c1.873-1.875,4.764-2.389,7.347-1.316l0.377,0.156
	c2.583,1.066,4.251,3.467,4.251,6.117V452c0,33.084,26.916,60,60,60h20C299.084,512,326,485.084,326,452z M145.741,408.684
	l-7.122,7.123c-3.777,3.777-8.799,5.857-14.142,5.857c-5.342,0-10.364-2.081-14.142-5.858l-14.142-14.142
	c-3.778-3.778-5.858-8.8-5.858-14.142s2.08-10.365,5.858-14.142l7.122-7.122c13.36-13.361,17.274-33.362,9.976-50.961l-0.13-0.314
	C105.891,297.376,88.978,286,70.073,286H60c-11.028,0-20-8.972-20-20v-20c0-11.028,8.972-20,20-20h10.073
	c18.904,0,35.817-11.376,43.116-29.048l0.093-0.227c7.313-17.604,3.4-37.616-9.967-50.984l-7.121-7.121
	c-7.799-7.798-7.799-20.486,0-28.285l14.141-14.142c3.778-3.777,8.801-5.858,14.143-5.858c5.343,0,10.364,2.08,14.142,5.858
	l7.123,7.123c13.369,13.367,33.382,17.278,50.991,9.962l0.282-0.117C214.623,105.892,226,88.979,226,70.074V60
	c0-11.028,8.972-20,20-20h20c11.028,0,20,8.972,20,20v10.074c0,18.905,11.377,35.818,29.006,43.098l0.27,0.112
	c17.602,7.31,37.614,3.398,50.983-9.967l7.122-7.123c3.777-3.777,8.799-5.857,14.142-5.857c5.342,0,10.364,2.081,14.142,5.858
	l14.142,14.142c7.799,7.798,7.799,20.486,0.001,28.284l-7.123,7.123c-13.366,13.367-17.278,33.379-9.996,50.91l0.15,0.365
	c7.27,17.605,24.183,28.981,43.088,28.981H452c11.028,0,20,8.972,20,20v20c0,11.028-8.972,20-20,20h-10.073
	c-18.904,0-35.817,11.376-43.089,28.983l-0.13,0.314c-7.299,17.599-3.385,37.6,9.976,50.961l7.123,7.122
	c3.777,3.777,5.857,8.8,5.857,14.142s-2.08,10.364-5.858,14.142l-14.141,14.142c-3.778,3.777-8.801,5.858-14.143,5.858
	c-5.343,0-10.364-2.08-14.142-5.858l-7.123-7.123c-13.368-13.365-33.381-17.276-50.991-9.962l-0.282,0.117
	C297.377,406.108,286,423.021,286,441.926V452c0,11.028-8.972,20-20,20h-20c-11.028,0-20-8.972-20-20v-10.074
	c0-18.905-11.377-35.818-29.006-43.098l-0.27-0.112c-5.89-2.446-12.047-3.636-18.137-3.636
	C166.477,395.081,154.637,399.79,145.741,408.684z"/>
<g>
</g>
<g>
</g>
<g>
</g>
<g>
</g>
<g>
</g>
<g>
</g>
<g>
</g>
<g>
</g>
<g>
</g>
<g>
</g>
<g>
</g>
<g>
</g>
<g>
</g>
<g>
</g>
<g>
</g>
</svg>
