<?xml version="1.0" encoding="utf-8"?>
<!-- Generator: Adobe Illustrator 23.0.1, SVG Export Plug-In . SVG Version: 6.00 Build 0)  -->
<svg version="1.1" id="Capa_1" xmlns="http://www.w3.org/2000/svg" xmlns:xlink="http://www.w3.org/1999/xlink" x="0px" y="0px"
	 viewBox="0 0 512 512" style="enable-background:new 0 0 512 512;" xml:space="preserve">
<g>
	<g>
		<path d="M423.4,60.3h-68.4V15.9c0-8.9-7.2-15.9-16.2-15.9c-0.9,0-1.4,0.3-1.7,0.6C336.9,0.3,336.3,0,336,0H175.4h-1.2h-1.2
			c-8.9,0-15.9,6.9-15.9,15.9v44.4H88.6c-19.6,0-34.9,15.3-34.9,34.9v25.4v31.7h30.3v325.1c0,19.6,15,34.6,34.6,34.6h274.9
			c19.6,0,34.9-15,34.9-34.6V152.3h30v-31.7V95.2C458.3,75.6,443.1,60.3,423.4,60.3z M188.9,31.7h134.1v28.6H188.9V31.7z
			 M396.3,477.4c0,2-0.9,2.9-2.9,2.9H118.6c-2,0-2.9-0.9-2.9-2.9V152.3h280.7V477.4z M426.3,120.6H85.7V95.2c0-2,0.9-3.2,2.9-3.2
			h334.9c2,0,2.9,1.2,2.9,3.2L426.3,120.6L426.3,120.6z"/>
		<rect x="314.1" y="189.5" width="32" height="262.5"/>
		<rect x="240.3" y="189.5" width="32" height="262.5"/>
		<rect x="166.4" y="189.5" width="32" height="262.5"/>
	</g>
</g>
</svg>
