<?xml version="1.0" encoding="iso-8859-1"?>
<!-- Generator: Adobe Illustrator 19.0.0, SVG Export Plug-In . SVG Version: 6.00 Build 0)  -->
<svg version="1.1" id="Capa_1" xmlns="http://www.w3.org/2000/svg" xmlns:xlink="http://www.w3.org/1999/xlink" x="0px" y="0px"
	 viewBox="0 0 512 512" style="enable-background:new 0 0 512 512;" xml:space="preserve">
<linearGradient id="SVGID_1_" gradientUnits="userSpaceOnUse" x1="20" y1="258" x2="492" y2="258" gradientTransform="matrix(1 0 0 -1 0 514)">
	<stop  offset="0" style="stop-color:#f60400"/>
	<stop  offset="0.021" style="stop-color:#ff2300"/>
	<stop  offset="0.293" style="stop-color:#ff4100"/>
	<stop  offset="0.554" style="stop-color:#ff732a"/>
	<stop  offset="0.796" style="stop-color:#ff953e"/>
	<stop  offset="1" style="stop-color:#ff9f42"/>
</linearGradient>
<path style="fill:url(#SVGID_1_);" d="M256,163c11.046,0,20,8.954,20,20v228.933c0,11.046-8.954,20-20,20s-20-8.954-20-20V183
	C236,171.954,244.954,163,256,163z M326.019,182.127l-10,228.934c-0.482,11.035,8.073,20.372,19.108,20.854
	c0.297,0.013,0.593,0.02,0.888,0.02c10.643,0,19.497-8.39,19.966-19.128l10-228.933c0.482-11.035-8.073-20.372-19.108-20.854
	C335.856,162.527,326.501,171.092,326.019,182.127z M165.127,163.019c-11.035,0.482-19.59,9.818-19.108,20.854l10,228.933
	c0.469,10.738,9.322,19.128,19.966,19.128c0.294,0,0.591-0.006,0.888-0.02c11.035-0.482,19.59-9.818,19.108-20.854l-10-228.934
	C185.499,171.092,176.145,162.523,165.127,163.019z M492,103c0,11.046-8.954,20-20,20h-20.712l-17.319,224.538
	c-0.809,10.489-9.572,18.463-19.919,18.463c-0.517,0-1.036-0.02-1.56-0.06c-11.013-0.85-19.252-10.466-18.403-21.479L411.169,123
	H100.831l24.124,312.758C126.903,456.429,144.001,472,164.778,472h182.444c20.848,0,37.973-15.397,39.834-35.816
	c1.003-11,10.723-19.104,21.734-18.101c11,1.003,19.104,10.733,18.101,21.734C423.139,480.968,388.889,512,347.222,512H164.778
	c-20.007,0-39.163-7.429-53.939-20.919s-23.914-31.892-25.73-51.816c-0.008-0.093-0.016-0.186-0.023-0.278L60.712,123H40
	c-11.046,0-20-8.954-20-20s8.954-20,20-20h121V60c0-33.084,26.916-60,60-60h70c33.084,0,60,26.916,60,60v23h121
	C483.046,83,492,91.954,492,103z M201,83h110V60c0-11.028-8.972-20-20-20h-70c-11.028,0-20,8.972-20,20V83z"/>
<g>
</g>
<g>
</g>
<g>
</g>
<g>
</g>
<g>
</g>
<g>
</g>
<g>
</g>
<g>
</g>
<g>
</g>
<g>
</g>
<g>
</g>
<g>
</g>
<g>
</g>
<g>
</g>
<g>
</g>
</svg>
