<?xml version="1.0" encoding="iso-8859-1"?>
<!-- Generator: Adobe Illustrator 19.0.0, SVG Export Plug-In . SVG Version: 6.00 Build 0)  -->
<svg version="1.1" id="Capa_1" xmlns="http://www.w3.org/2000/svg" xmlns:xlink="http://www.w3.org/1999/xlink" x="0px" y="0px"
	 viewBox="0 0 512 512" style="enable-background:new 0 0 512 512;" xml:space="preserve">
<linearGradient id="SVGID_1_" gradientUnits="userSpaceOnUse" x1="0" y1="258" x2="512" y2="258" gradientTransform="matrix(1 0 0 -1 0 514)">
	<stop  offset="0" style="stop-color:#21212a"/>
	<stop  offset="0.021" style="stop-color:#21212a"/>
	<stop  offset="0.293" style="stop-color:#21212a"/>
	<stop  offset="0.554" style="stop-color:#21212a"/>
	<stop  offset="0.796" style="stop-color:#21212a"/>
	<stop  offset="1" style="stop-color:#21212a"/>
</linearGradient>
<path style="fill:url(#SVGID_1_);" d="M437.02,74.98C388.667,26.629,324.38,0,256,0S123.333,26.629,74.98,74.98
	C26.629,123.333,0,187.62,0,256s26.629,132.667,74.98,181.02C123.333,485.371,187.62,512,256,512
	c46.813,0,92.618-12.758,132.462-36.894c9.448-5.724,12.467-18.021,6.744-27.469c-5.723-9.449-18.021-12.467-27.468-6.744
	c-32.028,19.402-68.642,30.083-106.221,31.036l86.304-155.539c11.486-17.371,18.18-38.175,18.18-60.513
	c0-26.512-9.428-50.864-25.107-69.878H460.36c7.543,21.962,11.64,45.511,11.64,70c0,42.589-12.665,84.044-36.626,119.884
	c-6.139,9.183-3.672,21.604,5.511,27.742c9.183,6.14,21.604,3.673,27.742-5.51C497.001,355.674,512,306.53,512,256
	C512,187.62,485.371,123.333,437.02,74.98z M40,256c0-38.525,10.138-74.726,27.886-106.077l87.092,149.478
	c16.897,39.07,55.819,66.477,101.022,66.477c6.683,0,13.228-0.599,19.585-1.747l-57.959,104.455C116.765,450.428,40,362.01,40,256z
	 M326,255.878c0,12.027-3.049,23.354-8.414,33.252c-0.77,0.933-1.466,1.949-2.074,3.045l-1.896,3.418
	c-12.642,18.284-33.753,30.285-57.615,30.285c-24.406,0-45.934-12.555-58.466-31.545c-0.45-1.651-1.121-3.272-2.023-4.821
	l-4.626-7.94c-3.151-7.958-4.884-16.627-4.884-25.694c0-38.598,31.402-70,70-70c0.276,0,0.552,0.002,0.827,0.005
	C257.541,185.96,258.266,186,259,186h1.154C296.826,188.157,326,218.675,326,255.878z M261.204,146
	c-1.725-0.081-3.46-0.122-5.204-0.122c-46.909,0-87.053,29.514-102.84,70.948L93.296,114.079C132.922,68.708,191.171,40,256,40
	c78.96,0,148.161,42.588,185.838,106H261.204z"/>
<g>
</g>
<g>
</g>
<g>
</g>
<g>
</g>
<g>
</g>
<g>
</g>
<g>
</g>
<g>
</g>
<g>
</g>
<g>
</g>
<g>
</g>
<g>
</g>
<g>
</g>
<g>
</g>
<g>
</g>
</svg>
