<?xml version="1.0" encoding="utf-8"?>
<!-- Generator: Adobe Illustrator 16.0.0, SVG Export Plug-In . SVG Version: 6.00 Build 0)  -->
<!DOCTYPE svg PUBLIC "-//W3C//DTD SVG 1.1//EN" "http://www.w3.org/Graphics/SVG/1.1/DTD/svg11.dtd">
<svg version="1.1" id="Layer_1" xmlns="http://www.w3.org/2000/svg" xmlns:xlink="http://www.w3.org/1999/xlink" x="0px" y="0px"
	 width="130px" height="130px" viewBox="0 0 130 130" enable-background="new 0 0 130 130" xml:space="preserve">
<g>
	<g>
		<path fill="#323738" d="M105.133,10.223l-12.82-7.344c-0.561-0.409-1.162-0.754-1.801-1.033l-0.189-0.107l-0.008,0.016
			c-3.449-1.402-7.904-0.895-12.764,1.91L38.064,26.459c-10.857,6.269-19.74,21.656-19.74,34.193v45.592
			c0,6.113,2.123,10.449,5.547,12.577l-0.033,0.06l14.248,8.072l8.012-13.949l31.453-18.158c10.855-6.268,19.74-21.655,19.74-34.193
			V23.875L105.133,10.223z"/>
		<path fill="#252B2D" d="M105.133,10.223L91.41,7.004c-0.561-0.408-3.363-0.398-4.002-0.677L86.391,5.92l-1.832-0.34
			c-3.449-1.402-2.148-4.721-7.008-1.916L38.064,26.459c-10.857,6.269-19.74,21.656-19.74,34.193v45.592
			c0,6.113,2.123,10.449,5.547,12.577l-0.033,0.06l14.248,8.072l8.012-13.949l31.453-18.158c10.855-6.268,19.74-21.655,19.74-34.193
			V23.875L105.133,10.223z"/>
		<path fill="#090C0C" d="M19.076,54.084c-0.479,2.232-0.752,4.443-0.752,6.568v45.592c0,6.113,2.123,10.449,5.547,12.577
			l-0.033,0.06l14.248,8.072l8.012-13.949l31.453-18.158c1.844-1.064,3.627-2.41,5.322-3.945L19.076,54.084z"/>
		<g>
			<path fill="#3B4142" d="M51.635,34.328c-10.857,6.269-19.742,21.656-19.742,34.193v45.592c0,12.537,8.885,17.666,19.742,11.397
				l39.484-22.795c10.857-6.269,19.742-21.655,19.742-34.194V22.931c0-12.538-8.885-17.665-19.742-11.397L51.635,34.328z"/>
			<path opacity="0.2" fill="#383E3F" d="M110.861,22.931c0-12.538-8.885-17.665-19.742-11.397L51.635,34.328
				c-10.857,6.269-19.742,21.656-19.742,34.193v45.592c0,12.537,8.885,17.666,19.742,11.397"/>
			<path fill="#3B4142" d="M32.165,65.096l78.427-45.279c0.125-0.949,0.203-1.888,0.237-2.814L31.927,62.557
				C31.961,63.443,32.041,64.29,32.165,65.096z"/>
			<path fill="#4F5759" d="M42.865,129h-0.002c-7.158,0-11.783-5.844-11.783-14.887V68.521c0-12.828,9.037-28.484,20.146-34.897
				l39.486-22.796c3.201-1.848,6.289-2.783,9.178-2.783c7.158,0,11.785,5.844,11.785,14.886v45.591
				c0,12.83-9.039,28.485-20.148,34.898l-39.486,22.796C48.84,128.062,45.754,129,42.865,129z M99.891,9.673
				c-2.6,0-5.414,0.863-8.363,2.564L52.041,35.033c-10.66,6.156-19.334,21.178-19.334,33.488v45.592
				c0,8.178,3.891,13.258,10.156,13.258h0.002c2.6,0,5.412-0.863,8.361-2.564l39.486-22.796
				c10.66-6.155,19.334-21.179,19.334-33.489V22.931C110.047,14.753,106.156,9.673,99.891,9.673z"/>
		</g>
	</g>
	<g>
		<g>
			<g>
				<path fill="#FF4D8D" d="M47.606,47.117c0.001-1.051,0.743-2.34,1.653-2.864c0.91-0.525,1.654-0.097,1.653,0.954
					c0.001,1.051-0.744,2.34-1.653,2.865C48.35,48.596,47.607,48.167,47.606,47.117z"/>
			</g>
			<g>
				<path fill="#EA2864" d="M49.26,48.072c-0.91,0.523-1.652,0.095-1.653-0.955c0.001-1.051,0.743-2.34,1.653-2.864"/>
			</g>
		</g>
		<g>
			<g>
				<path fill="#F7D011" d="M54.652,43.089c0-1.052,0.743-2.339,1.652-2.864c0.91-0.525,1.654-0.096,1.654,0.955
					c0,1.049-0.744,2.338-1.654,2.863C55.396,44.568,54.652,44.139,54.652,43.089z"/>
			</g>
			<g>
				<path fill="#F4B414" d="M56.305,44.043c-0.909,0.525-1.652,0.096-1.652-0.954c0-1.052,0.743-2.339,1.652-2.864"/>
			</g>
		</g>
		<g>
			<g>
				<path fill="#15EAA8" d="M61.697,39.061c0-1.051,0.744-2.34,1.653-2.865c0.91-0.525,1.653-0.096,1.653,0.955
					s-0.744,2.338-1.653,2.863S61.697,40.109,61.697,39.061z"/>
			</g>
			<g>
				<path fill="#08C1B3" d="M63.351,40.014c-0.909,0.525-1.653,0.096-1.653-0.953c0-1.051,0.744-2.34,1.653-2.865"/>
			</g>
		</g>
	</g>
	<g>
		<g>
			<path fill="#FFFFFF" d="M68.064,81.826c-0.502,0-1.012-0.127-1.478-0.396l-15.39-8.885c-1.416-0.818-1.9-2.631-1.084-4.047
				c0.818-1.417,2.627-1.902,4.047-1.084l15.389,8.885c1.418,0.818,1.902,2.631,1.084,4.047
				C70.084,81.296,69.089,81.826,68.064,81.826z"/>
		</g>
		<g>
			<path fill="#FFFFFF" d="M52.676,108.483c-0.502,0-1.011-0.128-1.479-0.396c-1.416-0.818-1.9-2.63-1.084-4.046l15.389-26.657
				c0.818-1.417,2.624-1.903,4.047-1.085c1.418,0.818,1.902,2.629,1.084,4.047l-15.389,26.656
				C54.695,107.953,53.699,108.483,52.676,108.483z"/>
		</g>
		<g>
			<path fill="#FFFFFF" d="M73.202,96.636c-1.024,0-2.019-0.53-2.569-1.481c-0.816-1.416-0.332-3.228,1.086-4.046L92.24,79.262
				c1.418-0.822,3.229-0.332,4.047,1.084c0.816,1.418,0.332,3.229-1.086,4.047L74.68,96.24
				C74.213,96.509,73.703,96.636,73.202,96.636z"/>
		</g>
	</g>
</g>
</svg>
