<?xml version="1.0" encoding="iso-8859-1"?>
<!-- Generator: Adobe Illustrator 19.0.0, SVG Export Plug-In . SVG Version: 6.00 Build 0)  -->
<svg version="1.1" id="Capa_1" xmlns="http://www.w3.org/2000/svg" xmlns:xlink="http://www.w3.org/1999/xlink" x="0px" y="0px"
	 viewBox="0 0 512 512" style="enable-background:new 0 0 512 512;" xml:space="preserve">
<linearGradient id="SVGID_1_" gradientUnits="userSpaceOnUse" x1="0" y1="258" x2="512" y2="258" gradientTransform="matrix(1 0 0 -1 0 514)">
	<stop  offset="0" style="stop-color:#f60400"/>
	<stop  offset="0.021" style="stop-color:#ff2300"/>
	<stop  offset="0.293" style="stop-color:#ff4100"/>
	<stop  offset="0.554" style="stop-color:#ff732a"/>
	<stop  offset="0.796" style="stop-color:#ff953e"/>
	<stop  offset="1" style="stop-color:#ff9f42"/>
</linearGradient>
<path style="fill:url(#SVGID_1_);" d="M512,356c0,16.464-2.557,32.687-7.6,48.216c-2.745,8.453-10.587,13.828-19.019,13.829
	c-2.047,0-4.128-0.317-6.181-0.983c-10.505-3.412-16.256-14.693-12.845-25.199C470.101,380.328,472,368.263,472,356
	c0-63.963-52.037-116-116-116c-38.504,0-74.097,18.855-95.79,50.571C266.249,322.795,271,352.631,271,366
	c0,16.8-7.007,32-18.265,42.903C272.486,447.521,312.054,472,356,472c19.446,0,38.674-4.898,55.605-14.167
	c9.689-5.304,21.843-1.749,27.146,7.94s1.749,21.844-7.94,27.147C408.009,505.402,382.139,512,356,512
	c-59.64,0-113.284-33.526-139.587-86.29c-1.946,0.188-3.917,0.29-5.913,0.29c-21.064,0-40.207-10.736-51.208-28.721
	c-0.341-0.558-0.654-1.131-0.939-1.72l-85.5-176.554C69.687,215.223,64.975,213,60,213H20c-11.046,0-20-8.954-20-20s8.954-20,20-20
	h40c18.371,0,35.681,8.948,46.304,23.936c0.639,0.901,1.202,1.854,1.684,2.849l85.866,177.311c3.731,5.592,9.895,8.905,16.646,8.905
	c11.112,0,20.5-9.159,20.5-20c0-18.483-15.574-100.535-29.499-161.55c-1.166-5.108-0.281-10.47,2.465-14.933
	c0.914-1.484,22.894-36.564,67.744-54.118c10.288-4.028,21.888,1.049,25.914,11.335c4.025,10.286-1.049,21.888-11.335,25.913
	c-22.355,8.75-36.95,23.614-43.771,31.867c2.342,10.511,5.063,23.107,7.876,36.614c28.216-26,65.281-40.88,104.663-41.114
	c-1.965-9.846-3.67-18.125-4.213-20.261c-3.105-10.316,2.542-21.298,12.83-24.728c10.481-3.492,21.806,2.169,25.298,12.649
	c0.408,1.222,1.345,4.038,7.932,37.777c20.151,5.481,38.692,14.904,54.739,27.395L432.5,127.563
	c-2.094-6.988-5.997-13.185-11.373-18.073L310.308,57.995C284.972,46.223,256.813,40,228.876,40H20C8.954,40,0,31.046,0,20
	S8.954,0,20,0h208.876c33.719,0,67.707,7.511,98.287,21.72l113.31,52.651c1.5,0.697,2.908,1.577,4.191,2.621
	c12.941,10.525,22.141,24.583,26.606,40.655c0.163,0.585,0.298,1.177,0.407,1.774l38,209c0.144,0.79,0.225,1.575,0.273,2.357
	C511.292,338.992,512,347.414,512,356z M361.254,419.764c11.046,0,20-8.954,20-20v-90c0-7.594-4.301-14.533-11.102-17.912
	c-6.801-3.376-14.929-2.612-20.981,1.975l-32,24.261c-8.802,6.673-10.528,19.219-3.854,28.021
	c6.652,8.773,19.139,10.518,27.938,3.917v49.739C341.254,410.81,350.208,419.764,361.254,419.764z"/>
<g>
</g>
<g>
</g>
<g>
</g>
<g>
</g>
<g>
</g>
<g>
</g>
<g>
</g>
<g>
</g>
<g>
</g>
<g>
</g>
<g>
</g>
<g>
</g>
<g>
</g>
<g>
</g>
<g>
</g>
</svg>
